<?xml version="1.0" encoding="UTF-8" standalone="no"?>
<svg
   xmlns:dc="http://purl.org/dc/elements/1.1/"
   xmlns:cc="http://creativecommons.org/ns#"
   xmlns:rdf="http://www.w3.org/1999/02/22-rdf-syntax-ns#"
   xmlns:svg="http://www.w3.org/2000/svg"
   xmlns="http://www.w3.org/2000/svg"
   xmlns:xlink="http://www.w3.org/1999/xlink"
   xmlns:sodipodi="http://sodipodi.sourceforge.net/DTD/sodipodi-0.dtd"
   xmlns:inkscape="http://www.inkscape.org/namespaces/inkscape"
   class="logo"
   width="130"
   height="245"
   viewBox="0 0 1300 2450"
   version="1.1"
   id="svg4423"
   sodipodi:docname="logo_vertical_blue_path_with_shadow.svg"
   inkscape:version="0.92.4 (5da689c313, 2019-01-14)">
  <metadata
     id="metadata4429">
    <rdf:RDF>
      <cc:Work
         rdf:about="">
        <dc:format>image/svg+xml</dc:format>
        <dc:type
           rdf:resource="http://purl.org/dc/dcmitype/StillImage" />
        <dc:title></dc:title>
      </cc:Work>
    </rdf:RDF>
  </metadata>
  <defs
     id="defs4427">
    <filter
       style="color-interpolation-filters:sRGB"
       inkscape:label="Drop Shadow"
       id="filter5308">
      <feFlood
         flood-opacity="1"
         flood-color="rgb(0,0,0)"
         result="flood"
         id="feFlood5298" />
      <feComposite
         in="flood"
         in2="SourceGraphic"
         operator="in"
         result="composite1"
         id="feComposite5300" />
      <feGaussianBlur
         in="composite1"
         stdDeviation="67.6"
         result="blur"
         id="feGaussianBlur5302" />
      <feOffset
         dx="26.5"
         dy="45.1"
         result="offset"
         id="feOffset5304" />
      <feComposite
         in="SourceGraphic"
         in2="offset"
         operator="over"
         result="composite2"
         id="feComposite5306" />
    </filter>
    <filter
       style="color-interpolation-filters:sRGB;"
       inkscape:label="Drop Shadow"
       id="filter6739">
      <feFlood
         flood-opacity="1"
         flood-color="rgb(0,0,0)"
         result="flood"
         id="feFlood6729" />
      <feComposite
         in="flood"
         in2="SourceGraphic"
         operator="in"
         result="composite1"
         id="feComposite6731" />
      <feGaussianBlur
         in="composite1"
         stdDeviation="67.6"
         result="blur"
         id="feGaussianBlur6733" />
      <feOffset
         dx="21.4"
         dy="49.7297"
         result="offset"
         id="feOffset6735" />
      <feComposite
         in="SourceGraphic"
         in2="offset"
         operator="over"
         result="fbSourceGraphic"
         id="feComposite6737" />
      <feColorMatrix
         result="fbSourceGraphicAlpha"
         in="fbSourceGraphic"
         values="0 0 0 -1 0 0 0 0 -1 0 0 0 0 -1 0 0 0 0 1 0"
         id="feColorMatrix6741" />
      <feFlood
         id="feFlood6743"
         flood-opacity="1"
         flood-color="rgb(0,0,0)"
         result="flood"
         in="fbSourceGraphic" />
      <feComposite
         in2="fbSourceGraphic"
         id="feComposite6745"
         in="flood"
         operator="in"
         result="composite1" />
      <feGaussianBlur
         id="feGaussianBlur6747"
         in="composite1"
         stdDeviation="62.7"
         result="blur" />
      <feOffset
         id="feOffset6749"
         dx="21.4"
         dy="49.7"
         result="offset" />
      <feComposite
         in2="offset"
         id="feComposite6751"
         in="fbSourceGraphic"
         operator="over"
         result="composite2" />
    </filter>
    <filter
       style="color-interpolation-filters:sRGB;"
       inkscape:label="Drop Shadow"
       id="filter6763">
      <feFlood
         flood-opacity="1"
         flood-color="rgb(0,0,0)"
         result="flood"
         id="feFlood6753" />
      <feComposite
         in="flood"
         in2="SourceGraphic"
         operator="in"
         result="composite1"
         id="feComposite6755" />
      <feGaussianBlur
         in="composite1"
         stdDeviation="62.7"
         result="blur"
         id="feGaussianBlur6757" />
      <feOffset
         dx="21.4"
         dy="49.7"
         result="offset"
         id="feOffset6759" />
      <feComposite
         in="SourceGraphic"
         in2="offset"
         operator="over"
         result="composite2"
         id="feComposite6761" />
    </filter>
  </defs>
  <sodipodi:namedview
     pagecolor="#ffffff"
     bordercolor="#666666"
     borderopacity="1"
     objecttolerance="10"
     gridtolerance="10"
     guidetolerance="10"
     inkscape:pageopacity="0"
     inkscape:pageshadow="2"
     inkscape:window-width="752"
     inkscape:window-height="480"
     id="namedview4425"
     showgrid="false"
     fit-margin-top="0"
     fit-margin-left="5"
     fit-margin-right="5"
     fit-margin-bottom="5"
     inkscape:zoom="1.18"
     inkscape:cx="65"
     inkscape:cy="125"
     inkscape:window-x="197"
     inkscape:window-y="25"
     inkscape:window-maximized="0"
     inkscape:current-layer="svg4423" />
  <style
     id="style4322">
		.svg-background { fill: #005a9c; }
		.icon, .wordmark { fill: #fff; }
	</style>
  <polygon
     class="svg-background"
     points="0,0 1000,0 1000,1750 510,2000 490,2000 0,1750 "
     id="polygon4324"
     style="fill:#005a9c;filter:url(#filter6763)"
     transform="translate(150,200)" />
  <g
     transform="matrix(0.9,0,0,0.9,195,200)"
     id="g4421">
    <g
       class="icon"
       transform="translate(0,60)"
       id="g4344"
       style="fill:#ffffff">
      <g
         class="arrow"
         id="g4333">
        <path
           id="arrow"
           d="m 319,34 231,250 -102,12 58,148 -48,18 -57,-148 -83,61 z"
           inkscape:connector-curvature="0" />
        <use
           xlink:href="#arrow"
           transform="rotate(90,500,500)"
           id="use4327"
           x="0"
           y="0"
           width="100%"
           height="100%" />
        <use
           xlink:href="#arrow"
           transform="rotate(180,500,500)"
           id="use4329"
           x="0"
           y="0"
           width="100%"
           height="100%" />
        <use
           xlink:href="#arrow"
           transform="rotate(-90,500,500)"
           id="use4331"
           x="0"
           y="0"
           width="100%"
           height="100%" />
      </g>
      <g
         class="arc"
         id="g4342">
        <path
           id="arc"
           d="M 419,106 A 400,400 0 0 1 845,293 H 752 A 335,335 0 0 0 482,174 Z"
           inkscape:connector-curvature="0" />
        <use
           xlink:href="#arc"
           transform="rotate(90,500,500)"
           id="use4336"
           x="0"
           y="0"
           width="100%"
           height="100%" />
        <use
           xlink:href="#arc"
           transform="rotate(180,500,500)"
           id="use4338"
           x="0"
           y="0"
           width="100%"
           height="100%" />
        <use
           xlink:href="#arc"
           transform="rotate(-90,500,500)"
           id="use4340"
           x="0"
           y="0"
           width="100%"
           height="100%" />
      </g>
    </g>
    <g
       class="wordmark"
       transform="translate(0,1000)"
       id="g4419"
       style="fill:#ffffff">
      <g
         id="text863"
         aria-label="Maps for the Web">
        <path
           d="m 294,272 -0.5,-89 -43.2,72.4 H 229 l -43,-70 V 272 H 142.2 V 104 h 39 l 59.1,97 57.6,-97 H 337 l 0.5,168 z"
           id="path4346"
           inkscape:connector-curvature="0" />
        <path
           d="m 483.6,239.4 h -71 L 399.2,272 H 351 l 74,-168 h 46.8 l 74.4,168 h -49.4 z m -14,-35 -21.5,-53.8 -21.6,53.7 z"
           id="path4348"
           inkscape:connector-curvature="0" />
        <path
           d="m 636.3,104 q 22.8,0 39.6,7.7 16.8,7.4 25.9,21.6 9.1,13.9 9.1,32.9 0,19 -9.1,32.8 -9.1,14 -26,21.6 -16.7,7.5 -39.5,7.5 H 607 V 272 H 559.5 V 104 Z m -3,86.6 q 14.7,0 22.2,-6.2 7.4,-6.5 7.4,-18.2 0,-11.8 -7.4,-18.3 -7.5,-6.5 -22.1,-6.5 H 607 v 49.2 z"
           id="path4350"
           inkscape:connector-curvature="0" />
        <path
           d="m 795.2,275.4 q -20.4,0 -39.6,-5 -19.2,-5.1 -31.2,-13.5 l 15.6,-35 q 11.3,7.4 26.2,12 14.9,4.5 29.3,4.5 27.3,0 27.3,-13.7 0,-7.2 -8,-10.5 -7.6,-3.6 -24.9,-7.5 -19,-4 -31.6,-8.6 -12.8,-4.8 -21.9,-15.1 -9.1,-10.4 -9.1,-27.9 0,-15.3 8.4,-27.6 8.4,-12.5 25,-19.7 16.8,-7.2 41,-7.2 16.6,0 32.6,3.9 16.1,3.6 28.4,10.8 L 848,150.6 q -24,-13 -46.5,-13 -14.2,0 -20.7,4.3 -6.5,4.1 -6.5,10.8 0,6.7 7.7,10.1 7.7,3.4 24.7,7 19.2,4 31.7,8.8 12.7,4.6 21.9,15 9.3,10 9.3,27.5 0,15.1 -8.4,27.4 -8.4,12.2 -25.2,19.7 -16.8,7.2 -40.8,7.2 z"
           id="path4352"
           inkscape:connector-curvature="0" />
        <path
           d="M 303.7,356.4 H 293 v -5.8 q 3,-1.7 6.3,-2.9 3.5,-1.3 6.5,-2 l 1,-5.3 q 2,-9.3 5.3,-15.3 3.4,-6.2 8,-9.6 4.4,-3.6 10.1,-5 5.7,-1.3 12.3,-1.3 4.8,0 9.8,0.9 5,0.7 8,2.4 0.2,2.1 -0.4,4.6 -0.4,2.4 -1.6,4.7 -1,2.2 -2.6,4 -1.5,1.8 -3.3,2.7 l -10.8,-11.4 q -2,0.5 -4.2,1.5 -2,1 -3.7,3.2 -1.8,2.2 -3.6,6.4 -1.7,4.2 -3,11.3 l -1.4,7.5 h 16.5 q 0.3,1.6 0,4.6 -0.3,2.9 -2,4.8 h -16.4 l -9.3,59.1 q -1.5,10.7 -6.2,17.7 -4.6,7.1 -10.3,11.3 -5.6,4.3 -11.3,6.4 -5.7,2.1 -9.3,2.9 l -1.6,-5.1 q 1.8,-0.9 4.5,-3 2.7,-2 5.4,-5.6 2.7,-3.6 5,-9 2.3,-5.2 3.5,-12.7 z"
           id="path4354"
           inkscape:connector-curvature="0" />
        <path
           d="m 338.5,393.2 q 0,-8.1 2.7,-16.5 2.7,-8.6 8.3,-15.4 5.5,-7.1 14,-11.6 8.5,-4.5 19.9,-4.5 13.5,0 21.1,7.3 7.7,7.4 7.7,22 0,9.8 -3,18.8 -3,8.9 -8.7,15.8 -5.7,6.7 -14,10.8 -8,3.9 -18.6,3.9 -6.3,0 -11.7,-1.8 -5.4,-2 -9.4,-5.7 -4,-3.9 -6.2,-9.6 -2,-5.7 -2,-13.5 z m 42.3,-39.5 q -6,0 -10,4.6 -4,4.4 -6.5,11.3 -2.4,6.8 -3.4,14.7 -1,8 -1,14.7 0,7.7 2.8,12 3,4.2 8,4.2 4.4,0 8,-3.6 3.8,-3.7 6.5,-9.9 2.7,-6.3 4.2,-14.2 1.5,-8.1 1.5,-16.8 0,-8.3 -2.7,-12.6 -2.6,-4.4 -7.4,-4.4 z"
           id="path4356"
           inkscape:connector-curvature="0" />
        <path
           d="m 463.6,361.3 q -2.8,1.1 -6.4,5.3 -3.5,4.2 -5.9,10.7 l -9.6,44.7 h -21 l 13.4,-64.4 -8.6,-1.9 v -5.1 q 2.6,-1.2 5.9,-2.1 3.4,-1 7.2,-1.7 3.9,-0.7 8,-1 4,-0.5 7.7,-0.6 l 3,1.8 -3.9,18.6 h 0.6 q 4.5,-8.7 10.4,-14.6 5.8,-5.8 13.6,-5.8 2.1,0 4.2,0.4 2.1,0.3 4,1.4 0.2,3.1 -0.7,6.9 -0.7,3.6 -2,6.9 -1.4,3.3 -3.2,5.8 -1.8,2.6 -3.5,3.5 z"
           id="path4358"
           inkscape:connector-curvature="0" />
        <path
           d="m 529,350.6 q 2.9,-1.8 6.3,-3 3.5,-1.4 6.8,-2.1 l 2.4,-11.4 q 1,-0.9 3.3,-1.6 2.2,-1 5,-1.5 2.6,-0.8 5.3,-1.4 l 5.1,-0.9 3.2,1.8 -3.6,16.5 h 17.5 q 0.3,1.8 -0.3,4.8 -0.4,2.9 -1.6,4.7 h -17.6 l -8.7,38.8 -0.9,5.1 q -0.3,2.1 -0.3,3.9 0,3.9 2,5.7 2,1.8 5.2,1.8 3.8,0 7,-0.9 3.4,-0.9 6.4,-2.5 l 2,3.9 q -1.9,1.9 -4.9,4 -3,2 -6.7,3.8 -3.8,1.6 -8.1,2.7 -4.4,1 -8.9,1 -7.8,0 -11.7,-3.6 -3.9,-3.6 -3.9,-9.9 0,-3.4 0.6,-7.3 0.6,-4 1.2,-6.6 l 8.7,-40 H 529 Z"
           id="path4360"
           inkscape:connector-curvature="0" />
        <path
           d="m 590.9,319.7 v -4.8 q 2.2,-0.9 5.7,-1.8 3.6,-1 7.6,-1.8 4.2,-0.9 8.6,-1.5 4.3,-0.6 8.2,-0.6 l 3.2,1.3 -12.6,58.4 h 0.7 q 2.9,-4.8 6.3,-9.2 3.6,-4.3 7.5,-7.4 4,-3.4 8.3,-5.2 4.3,-1.9 8.8,-1.9 7,0 10.7,4 3.7,4 3.7,9.8 0,4 -0.7,8.7 -0.8,4.7 -1.8,9 l -8.6,35 h 11.1 v 5 q -3,2.5 -8.8,4.6 -5.7,2 -13,2 -5,0 -7.3,-1.9 -2.2,-2.1 -2.2,-5 0,-2.6 0.6,-5.5 l 1.5,-6.6 5.5,-25 1.8,-8.5 q 1,-3.8 1,-7.3 0,-2.7 -1.3,-4.5 -1,-1.8 -3.3,-1.8 -3.4,0 -6.9,2.5 -3.4,2.5 -6.4,5.9 -3,3.5 -5.4,7.2 -2.3,3.8 -3.3,6.3 l -8.9,42.9 h -20.7 l 20.3,-100.3 z"
           id="path4362"
           inkscape:connector-curvature="0" />
        <path
           d="m 728.7,405.6 q -1.6,3 -4.8,6.3 -3.1,3.2 -7.3,5.9 -4.2,2.5 -9.3,4.2 -5.1,1.8 -10.7,1.8 -13.3,0 -20.8,-7.2 -7.4,-7.3 -7.4,-20.7 0,-10.3 3.3,-19.5 3.3,-9.1 9.2,-16 6,-7.1 14,-11.1 8.3,-4.1 18,-4.1 9,0 15,4.2 5.8,4 5.8,11.3 0,10.1 -10.2,16.7 -10,6.7 -32.7,8.3 -0.5,2.1 -0.8,4.3 l -0.1,4.1 q 0,8.6 4.3,13.2 4.4,4.5 11.1,4.5 2.9,0 5.7,-0.9 2.9,-0.9 5.4,-2.4 2.7,-1.5 4.8,-3.1 2.3,-1.8 4,-3.5 z m -19.2,-51.9 q -5,0 -9.9,5.6 -4.6,5.5 -7.8,18.8 11.1,-0.4 17.9,-5 6.9,-4.7 6.9,-12.2 0,-3 -1.7,-5 -1.5,-2.1 -5.4,-2.1 z"
           id="path4364"
           inkscape:connector-curvature="0" />
        <path
           d="M 466.8,474.1 401.6,675 H 340.8 L 302.3,552.7 262.1,675 H 201.3 L 136.1,474.1 h 58.6 L 235.2,602.4 277.6,474 H 330 L 370.4,603.4 412.6,474 Z"
           id="path4366"
           inkscape:connector-curvature="0" />
        <path
           d="m 648.1,631 v 44 H 487 V 474.1 h 157.5 v 44 H 543.1 v 33.8 h 89.3 v 42.5 H 543 V 631 Z"
           id="path4368"
           inkscape:connector-curvature="0" />
        <path
           d="m 834,570.2 q 17.3,6 27,19 9.8,12.6 9.8,30.7 0,26.4 -21.2,40.7 Q 828.3,675 788.2,675 H 679.7 V 474.1 h 102.7 q 38.5,0 58.6,14.3 20,14.1 20,38.2 0,14.4 -7.1,25.9 -6.9,11.1 -19.8,17.7 z m -98,-55 v 38.7 h 39 q 28.7,0 28.7,-19.5 0,-19.3 -28.7,-19.3 z M 783.5,634 q 29.8,0 29.8,-20.4 0,-20.4 -29.8,-20.4 H 735.8 V 634 Z"
           id="path4370"
           inkscape:connector-curvature="0" />
      </g>
      <g
         class="wordmark-date"
         id="text865"
         aria-label="SEPT−OCT 2020">
        <path
           d="m 186,794.7 q -5.5,0 -10.7,-1.6 -5.1,-1.5 -8.1,-4.1 l 3,-6.9 q 3,2.3 7.2,3.8 4.3,1.4 8.6,1.4 5.3,0 7.8,-1.7 2.7,-1.7 2.7,-4.5 0,-2 -1.5,-3.3 -1.4,-1.3 -3.7,-2 -2.2,-0.8 -6,-1.8 -5.5,-1.3 -9,-2.6 -3.3,-1.3 -5.7,-4 -2.4,-2.8 -2.4,-7.5 0,-4 2.1,-7.1 2.2,-3.3 6.5,-5.2 4.3,-1.9 10.6,-1.9 4.3,0 8.6,1.1 4.2,1.1 7.2,3.1 l -2.8,6.9 q -3,-1.8 -6.5,-2.8 -3.4,-1 -6.6,-1 -5.2,0 -7.8,1.8 -2.5,1.8 -2.5,4.7 0,2 1.4,3.4 1.5,1.2 3.8,2 l 6,1.7 q 5.4,1.2 8.8,2.6 3.4,1.3 5.8,4 2.4,2.7 2.4,7.3 0,4 -2.2,7.2 -2,3.2 -6.4,5 -4.4,2 -10.6,2 z"
           id="path4373"
           inkscape:connector-curvature="0" />
        <path
           d="M 261.7,786.6 V 794 H 226 v -47.6 h 34.7 v 7.4 h -25.9 v 12.4 h 23 v 7.3 h -23 v 13 z"
           id="path4375"
           inkscape:connector-curvature="0" />
        <path
           d="m 303.1,746.4 q 6.2,0 10.8,2 4.6,2 7,5.9 2.5,3.8 2.5,9 0,5.2 -2.5,9 -2.4,3.9 -7,6 -4.6,2 -10.8,2 H 292.4 V 794 h -8.9 v -47.6 z m -0.4,26.4 q 5.8,0 8.8,-2.5 3,-2.4 3,-7 0,-4.5 -3,-7 -3,-2.4 -8.8,-2.4 h -10.3 v 18.9 z"
           id="path4377"
           inkscape:connector-curvature="0" />
        <path
           d="m 352.6,753.9 h -15.8 v -7.5 h 40.4 v 7.5 H 361.4 V 794 h -8.8 z"
           id="path4379"
           inkscape:connector-curvature="0" />
        <path
           d="m 391.5,766.8 h 31.3 v 6.8 h -31.3 z"
           id="path4381"
           inkscape:connector-curvature="0" />
        <path
           d="m 468.2,794.7 q -7.3,0 -13.1,-3.1 -5.9,-3.2 -9.2,-8.8 -3.3,-5.7 -3.3,-12.6 0,-7 3.3,-12.5 3.3,-5.7 9.2,-8.8 5.8,-3.2 13.1,-3.2 7.3,0 13.1,3.2 5.9,3.1 9.2,8.7 3.3,5.6 3.3,12.6 0,7 -3.3,12.6 -3.3,5.6 -9.2,8.8 -5.8,3 -13.1,3 z m 0,-7.8 q 4.8,0 8.6,-2 3.8,-2.3 6,-6 2.1,-4 2.1,-8.7 0,-4.8 -2.1,-8.6 -2.2,-3.8 -6,-6 -3.8,-2.1 -8.6,-2.1 -4.8,0 -8.6,2.1 -3.8,2.2 -6,6 -2.1,3.8 -2.1,8.6 0,4.8 2.1,8.6 2.2,3.8 6,6 3.8,2.1 8.6,2.1 z"
           id="path4383"
           inkscape:connector-curvature="0" />
        <path
           d="m 537.2,794.7 q -7.2,0 -13,-3.1 -5.8,-3.2 -9.1,-8.8 -3.3,-5.6 -3.3,-12.6 0,-7 3.3,-12.6 3.4,-5.6 9.1,-8.7 5.9,-3.2 13.1,-3.2 5.9,0 10.7,2 4.8,2.1 8.1,6 l -5.7,5.3 q -5.1,-5.5 -12.7,-5.5 -4.9,0 -8.8,2.1 -3.8,2.2 -6,6 -2.2,3.8 -2.2,8.6 0,4.8 2.2,8.6 2.2,3.8 6,6 4,2.1 8.8,2.1 7.6,0 12.7,-5.6 l 5.7,5.4 q -3.3,3.9 -8.2,6 -4.8,2 -10.7,2 z"
           id="path4385"
           inkscape:connector-curvature="0" />
        <path
           d="M 585.7,753.9 H 570 v -7.5 h 40.4 v 7.5 H 594.6 V 794 h -8.9 z"
           id="path4387"
           inkscape:connector-curvature="0" />
        <path
           d="m 690.8,786.5 v 7.5 h -35.1 v -6 l 18.9,-17.9 q 3.2,-3 4.3,-5.3 1.1,-2.3 1.1,-4.5 0,-3.4 -2.2,-5.1 -2.2,-1.8 -6.6,-1.8 -7.3,0 -11.1,5 l -6.2,-4.8 q 2.8,-3.7 7.4,-5.8 4.8,-2 10.7,-2 7.7,0 12.3,3.6 4.7,3.7 4.7,10 0,3.9 -1.7,7.3 -1.6,3.4 -6.2,7.7 l -12.8,12.1 z"
           id="path4389"
           inkscape:connector-curvature="0" />
        <path
           d="m 727.5,794.7 q -5.7,0 -10.2,-2.9 -4.5,-2.9 -7,-8.4 -2.7,-5.6 -2.7,-13.2 0,-7.6 2.6,-13.1 2.6,-5.6 7,-8.5 4.6,-2.9 10.3,-2.9 5.7,0 10.2,3 4.5,2.8 7.1,8.4 2.6,5.5 2.6,13.1 0,7.6 -2.6,13.2 -2.6,5.5 -7.1,8.4 -4.5,2.9 -10.2,2.9 z m 0,-7.7 q 5,0 8,-4.2 3,-4.2 3,-12.6 0,-8.4 -3,-12.6 -3,-4.2 -8,-4.2 -5,0 -8,4.2 -3,4.2 -3,12.6 0,8.4 3,12.6 3,4.2 8,4.2 z"
           id="path4391"
           inkscape:connector-curvature="0" />
        <path
           d="m 799.5,786.5 v 7.5 h -35 v -6 l 18.8,-17.9 q 3.2,-3 4.3,-5.3 1.2,-2.3 1.2,-4.5 0,-3.4 -2.3,-5.1 -2.2,-1.8 -6.6,-1.8 -7.2,0 -11.1,5 l -6.2,-4.8 q 2.8,-3.7 7.5,-5.8 4.7,-2 10.6,-2 7.7,0 12.4,3.6 4.6,3.7 4.6,10 0,3.9 -1.6,7.3 -1.7,3.4 -6.3,7.7 l -12.7,12.1 z"
           id="path4393"
           inkscape:connector-curvature="0" />
        <path
           d="m 836.2,794.7 q -5.7,0 -10.2,-2.9 -4.5,-2.9 -7,-8.4 -2.6,-5.6 -2.6,-13.2 0,-7.6 2.5,-13.1 2.6,-5.6 7.1,-8.5 4.5,-2.9 10.2,-2.9 5.7,0 10.2,3 4.6,2.8 7.2,8.4 2.5,5.5 2.5,13.1 0,7.6 -2.5,13.2 -2.6,5.5 -7.2,8.4 -4.5,2.9 -10.2,2.9 z m 0,-7.7 q 5.1,0 8,-4.2 3,-4.2 3,-12.6 0,-8.4 -3,-12.6 -2.9,-4.2 -8,-4.2 -5,0 -8,4.2 -3,4.2 -3,12.6 0,8.4 3,12.6 3,4.2 8,4.2 z"
           id="path4395"
           inkscape:connector-curvature="0" />
      </g>
      <g
         class="wordmark-location"
         id="text867"
         aria-label="#Maps4HTML">
        <path
           d="m 233.2,882.3 h 9.2 v 6.1 h -10 l -1.3,11.6 h -6.2 l 1.4,-11.6 h -11.5 l -1.4,11.6 h -6.2 l 1.4,-11.6 h -9.2 v -6.1 h 10 l 1.5,-12.2 h -9.1 V 864 h 9.9 l 1.4,-11.6 h 6.2 l -1.4,11.6 h 11.4 l 1.4,-11.6 h 6.2 l -1.4,11.6 h 9.1 v 6.1 h -9.9 z m -6.1,0 1.5,-12.2 H 217 l -1.5,12.2 z"
           id="path4398"
           inkscape:connector-curvature="0" />
        <path
           d="m 312.3,900 v -31.6 l -15.7,26.2 h -4 L 277.1,868.9 V 900 h -8.5 v -47.6 h 7.3 l 18.9,31.6 18.6,-31.6 h 7.2 l 0.1,47.6 z"
           id="path4400"
           inkscape:connector-curvature="0" />
        <path
           d="m 362.6,863.3 q 8,0 12.3,3.9 4.2,3.8 4.2,11.5 V 900 h -8 v -4.4 q -1.5,2.4 -4.5,3.7 -2.8,1.2 -6.9,1.2 -4,0 -7.1,-1.4 -3.1,-1.4 -4.8,-3.9 -1.6,-2.5 -1.6,-5.6 0,-4.9 3.6,-7.8 3.6,-3 11.5,-3 h 9.3 v -0.6 q 0,-3.8 -2.3,-5.8 -2.2,-2 -6.7,-2 -3,0 -6,0.9 -3,1 -5,2.7 l -3.3,-6.2 q 2.8,-2.2 6.8,-3.4 4,-1.1 8.5,-1.1 z m -1.1,31 q 3.2,0 5.6,-1.4 2.5,-1.5 3.5,-4.3 v -4.2 H 362 q -7.4,0 -7.4,4.9 0,2.3 1.9,3.6 1.8,1.4 5,1.4 z"
           id="path4402"
           inkscape:connector-curvature="0" />
        <path
           d="m 426.2,863.3 q 5.3,0 9.4,2.3 4.2,2.3 6.6,6.5 2.4,4.2 2.4,9.7 0,5.6 -2.4,9.8 -2.4,4.3 -6.6,6.6 -4.1,2.3 -9.4,2.3 -7.4,0 -11.6,-5 v 17.7 H 406 v -49.5 h 8 v 4.7 q 2.2,-2.5 5.2,-3.8 3.1,-1.3 6.9,-1.3 z m -1,29.9 q 4.7,0 7.7,-3.1 3,-3.2 3,-8.3 0,-5 -3,-8.2 -3,-3.1 -7.7,-3.1 -3,0 -5.5,1.4 -2.4,1.4 -3.9,4 -1.4,2.5 -1.4,6 0,3.3 1.4,6 1.5,2.5 4,4 2.4,1.3 5.4,1.3 z"
           id="path4404"
           inkscape:connector-curvature="0" />
        <path
           d="m 479.9,900.5 q -4.4,0 -8.6,-1.2 -4.3,-1.1 -6.8,-2.9 l 3.3,-6.5 q 2.4,1.7 5.8,2.7 3.5,1 6.8,1 7.6,0 7.6,-4 0,-2 -2,-2.7 -1.8,-0.8 -6.1,-1.5 -4.5,-0.6 -7.4,-1.5 -2.7,-0.9 -4.9,-3 -2,-2.3 -2,-6.3 0,-5.1 4.3,-8.2 4.3,-3.1 11.7,-3.1 3.7,0 7.5,0.9 3.7,0.8 6,2.2 L 492,873 q -4.6,-2.8 -10.4,-2.8 -3.7,0 -5.7,1.2 -1.9,1 -1.9,3 0,2 2,2.9 2.2,0.8 6.5,1.5 4.4,0.7 7.1,1.6 2.8,0.9 4.8,3 2,2 2,6 0,5 -4.4,8.1 -4.4,3 -12,3 z"
           id="path4406"
           inkscape:connector-curvature="0" />
        <path
           d="M 559.6,889.2 H 551 V 900 h -8.5 V 889.2 H 516.4 V 883 l 23.4,-30.7 h 9.5 l -22.1,29.3 h 15.6 V 872 h 8.2 v 9.6 h 8.5 z"
           id="path4408"
           inkscape:connector-curvature="0" />
        <path
           d="M 625,852.4 V 900 h -8.8 V 879.6 H 591.6 V 900 h -8.8 v -47.6 h 8.8 v 19.7 h 24.6 v -19.7 z"
           id="path4410"
           inkscape:connector-curvature="0" />
        <path
           d="m 663.5,859.9 h -15.7 v -7.5 h 40.4 v 7.5 H 672.4 V 900 h -8.9 z"
           id="path4412"
           inkscape:connector-curvature="0" />
        <path
           d="m 754.5,900 v -31.6 l -15.7,26.2 h -4 L 719.2,868.9 V 900 h -8.4 v -47.6 h 7.3 L 737,884 755.5,852.4 h 7.3 V 900 Z"
           id="path4414"
           inkscape:connector-curvature="0" />
        <path
           d="m 791.7,852.4 h 8.9 v 40.1 h 24.9 v 7.5 h -33.8 z"
           id="path4416"
           inkscape:connector-curvature="0" />
      </g>
    </g>
  </g>
</svg>
