<svg class="logo"
	xmlns="http://www.w3.org/2000/svg"
	xmlns:xlink="http://www.w3.org/1999/xlink"
	width="13em" height="26em" viewBox="0 0 1000 2000">
	<style>
		.svg-background { fill: #005a9c; }
		.icon, .wordmark { fill: #fff; }
	</style>
	<polygon class="svg-background" points="0 0, 1000 0, 1000 1750, 510 2000, 490 2000, 0 1750" />
	<g transform="scale(.9) translate(50,0)">
		<g class="icon" transform="translate(0,60)">
			<g class="arrow">
				<path id="arrow"
					d="M319,34L550,284 448,296 506,444 458,462 401,314 318,375Z"/>
				<use xlink:href="#arrow" transform="rotate(90, 500,500)"/>
				<use xlink:href="#arrow" transform="rotate(180, 500,500)"/>
				<use xlink:href="#arrow" transform="rotate(270, 500,500)"/>
			</g>
			<g class="arc">
				<path id="arc"
					d="M 419,106 A400,400 0 0 1 845,293 L752,293 A335,335 0 0 0 482,174 Z"/>
				<use xlink:href="#arc" transform="rotate(90, 500,500)"/>
				<use xlink:href="#arc" transform="rotate(180, 500,500)"/>
				<use xlink:href="#arc" transform="rotate(270, 500,500)"/>
			</g>
		</g>

		<g class="wordmark" transform="translate(0,1000)">
			<g id="text863" aria-label="Maps for the Web">
				<path d="M294 272l-.5-89-43.2 72.4H229l-43-70V272h-43.8V104h39l59.1 97 57.6-97h39.1l.5 168z"/>
				<path d="M483.6 239.4h-71L399.2 272H351L425 104h46.8l74.4 168h-49.4zm-14-35l-21.5-53.8-21.6 53.7z"/>
				<path d="M636.3 104q22.8 0 39.6 7.7 16.8 7.4 25.9 21.6 9.1 13.9 9.1 32.9t-9.1 32.8q-9.1 14-26 21.6-16.7 7.5-39.5 7.5H607V272h-47.5V104zm-3 86.6q14.7 0 22.2-6.2 7.4-6.5 7.4-18.2 0-11.8-7.4-18.3-7.5-6.5-22.1-6.5H607v49.2z"/>
				<path d="M795.2 275.4q-20.4 0-39.6-5-19.2-5.1-31.2-13.5l15.6-35q11.3 7.4 26.2 12 14.9 4.5 29.3 4.5 27.3 0 27.3-13.7 0-7.2-8-10.5-7.6-3.6-24.9-7.5-19-4-31.6-8.6-12.8-4.8-21.9-15.1-9.1-10.4-9.1-27.9 0-15.3 8.4-27.6 8.4-12.5 25-19.7 16.8-7.2 41-7.2 16.6 0 32.6 3.9 16.1 3.6 28.4 10.8L848 150.6q-24-13-46.5-13-14.2 0-20.7 4.3-6.5 4.1-6.5 10.8 0 6.7 7.7 10.1 7.7 3.4 24.7 7 19.2 4 31.7 8.8 12.7 4.6 21.9 15 9.3 10 9.3 27.5 0 15.1-8.4 27.4-8.4 12.2-25.2 19.7-16.8 7.2-40.8 7.2z"/>
				<path d="M303.7 356.4H293v-5.8q3-1.7 6.3-2.9 3.5-1.3 6.5-2l1-5.3q2-9.3 5.3-15.3 3.4-6.2 8-9.6 4.4-3.6 10.1-5 5.7-1.3 12.3-1.3 4.8 0 9.8.9 5 .7 8 2.4.2 2.1-.4 4.6-.4 2.4-1.6 4.7-1 2.2-2.6 4-1.5 1.8-3.3 2.7l-10.8-11.4q-2 .5-4.2 1.5-2 1-3.7 3.2-1.8 2.2-3.6 6.4-1.7 4.2-3 11.3l-1.4 7.5h16.5q.3 1.6 0 4.6-.3 2.9-2 4.8h-16.4l-9.3 59.1q-1.5 10.7-6.2 17.7-4.6 7.1-10.3 11.3-5.6 4.3-11.3 6.4-5.7 2.1-9.3 2.9l-1.6-5.1q1.8-.9 4.5-3 2.7-2 5.4-5.6 2.7-3.6 5-9 2.3-5.2 3.5-12.7z"/>
				<path d="M338.5 393.2q0-8.1 2.7-16.5 2.7-8.6 8.3-15.4 5.5-7.1 14-11.6t19.9-4.5q13.5 0 21.1 7.3 7.7 7.4 7.7 22 0 9.8-3 18.8-3 8.9-8.7 15.8-5.7 6.7-14 10.8-8 3.9-18.6 3.9-6.3 0-11.7-1.8-5.4-2-9.4-5.7-4-3.9-6.2-9.6-2-5.7-2-13.5zm42.3-39.5q-6 0-10 4.6-4 4.4-6.5 11.3-2.4 6.8-3.4 14.7-1 8-1 14.7 0 7.7 2.8 12 3 4.2 8 4.2 4.4 0 8-3.6 3.8-3.7 6.5-9.9 2.7-6.3 4.2-14.2 1.5-8.1 1.5-16.8 0-8.3-2.7-12.6-2.6-4.4-7.4-4.4z"/>
				<path d="M463.6 361.3q-2.8 1.1-6.4 5.3-3.5 4.2-5.9 10.7l-9.6 44.7h-21l13.4-64.4-8.6-1.9v-5.1q2.6-1.2 5.9-2.1 3.4-1 7.2-1.7 3.9-.7 8-1 4-.5 7.7-.6l3 1.8-3.9 18.6h.6q4.5-8.7 10.4-14.6 5.8-5.8 13.6-5.8 2.1 0 4.2.4 2.1.3 4 1.4.2 3.1-.7 6.9-.7 3.6-2 6.9-1.4 3.3-3.2 5.8-1.8 2.6-3.5 3.5z"/>
				<path d="M529 350.6q2.9-1.8 6.3-3 3.5-1.4 6.8-2.1l2.4-11.4q1-.9 3.3-1.6 2.2-1 5-1.5 2.6-.8 5.3-1.4l5.1-.9 3.2 1.8-3.6 16.5h17.5q.3 1.8-.3 4.8-.4 2.9-1.6 4.7h-17.6l-8.7 38.8-.9 5.1q-.3 2.1-.3 3.9 0 3.9 2 5.7 2 1.8 5.2 1.8 3.8 0 7-.9 3.4-.9 6.4-2.5l2 3.9q-1.9 1.9-4.9 4-3 2-6.7 3.8-3.8 1.6-8.1 2.7-4.4 1-8.9 1-7.8 0-11.7-3.6-3.9-3.6-3.9-9.9 0-3.4.6-7.3.6-4 1.2-6.6l8.7-40H529z"/>
				<path d="M590.9 319.7v-4.8q2.2-.9 5.7-1.8 3.6-1 7.6-1.8 4.2-.9 8.6-1.5 4.3-.6 8.2-.6l3.2 1.3-12.6 58.4h.7q2.9-4.8 6.3-9.2 3.6-4.3 7.5-7.4 4-3.4 8.3-5.2 4.3-1.9 8.8-1.9 7 0 10.7 4 3.7 4 3.7 9.8 0 4-.7 8.7-.8 4.7-1.8 9l-8.6 35h11.1v5q-3 2.5-8.8 4.6-5.7 2-13 2-5 0-7.3-1.9-2.2-2.1-2.2-5 0-2.6.6-5.5l1.5-6.6 5.5-25 1.8-8.5q1-3.8 1-7.3 0-2.7-1.3-4.5-1-1.8-3.3-1.8-3.4 0-6.9 2.5-3.4 2.5-6.4 5.9-3 3.5-5.4 7.2-2.3 3.8-3.3 6.3l-8.9 42.9h-20.7l20.3-100.3z"/>
				<path d="M728.7 405.6q-1.6 3-4.8 6.3-3.1 3.2-7.3 5.9-4.2 2.5-9.3 4.2-5.1 1.8-10.7 1.8-13.3 0-20.8-7.2-7.4-7.3-7.4-20.7 0-10.3 3.3-19.5 3.3-9.1 9.2-16 6-7.1 14-11.1 8.3-4.1 18-4.1 9 0 15 4.2 5.8 4 5.8 11.3 0 10.1-10.2 16.7-10 6.7-32.7 8.3-.5 2.1-.8 4.3l-.1 4.1q0 8.6 4.3 13.2 4.4 4.5 11.1 4.5 2.9 0 5.7-.9 2.9-.9 5.4-2.4 2.7-1.5 4.8-3.1 2.3-1.8 4-3.5zm-19.2-51.9q-5 0-9.9 5.6-4.6 5.5-7.8 18.8 11.1-.4 17.9-5 6.9-4.7 6.9-12.2 0-3-1.7-5-1.5-2.1-5.4-2.1z"/>
				<path d="M466.8 474.1L401.6 675h-60.8l-38.5-122.3L262.1 675h-60.8l-65.2-200.9h58.6l40.5 128.3L277.6 474H330l40.4 129.4 42.2-129.4z"/>
				<path d="M648.1 631v44H487V474.1h157.5v44H543.1v33.8h89.3v42.5H543V631z"/>
				<path d="M834 570.2q17.3 6 27 19 9.8 12.6 9.8 30.7 0 26.4-21.2 40.7-21.3 14.4-61.4 14.4H679.7V474.1h102.7q38.5 0 58.6 14.3 20 14.1 20 38.2 0 14.4-7.1 25.9-6.9 11.1-19.8 17.7zm-98-55v38.7h39q28.7 0 28.7-19.5 0-19.3-28.7-19.3zM783.5 634q29.8 0 29.8-20.4t-29.8-20.4h-47.7V634z"/>
			</g>
			<g class="wordmark-date" id="text865" aria-label="SEPT−OCT 2020">
				<path d="M186 794.7q-5.5 0-10.7-1.6-5.1-1.5-8.1-4.1l3-6.9q3 2.3 7.2 3.8 4.3 1.4 8.6 1.4 5.3 0 7.8-1.7 2.7-1.7 2.7-4.5 0-2-1.5-3.3-1.4-1.3-3.7-2-2.2-.8-6-1.8-5.5-1.3-9-2.6-3.3-1.3-5.7-4-2.4-2.8-2.4-7.5 0-4 2.1-7.1 2.2-3.3 6.5-5.2 4.3-1.9 10.6-1.9 4.3 0 8.6 1.1 4.2 1.1 7.2 3.1l-2.8 6.9q-3-1.8-6.5-2.8-3.4-1-6.6-1-5.2 0-7.8 1.8-2.5 1.8-2.5 4.7 0 2 1.4 3.4 1.5 1.2 3.8 2l6 1.7q5.4 1.2 8.8 2.6 3.4 1.3 5.8 4t2.4 7.3q0 4-2.2 7.2-2 3.2-6.4 5-4.4 2-10.6 2z"/>
				<path d="M261.7 786.6v7.4H226v-47.6h34.7v7.4h-25.9v12.4h23v7.3h-23v13z"/>
				<path d="M303.1 746.4q6.2 0 10.8 2 4.6 2 7 5.9 2.5 3.8 2.5 9t-2.5 9q-2.4 3.9-7 6-4.6 2-10.8 2h-10.7V794h-8.9v-47.6zm-.4 26.4q5.8 0 8.8-2.5 3-2.4 3-7 0-4.5-3-7-3-2.4-8.8-2.4h-10.3v18.9z"/>
				<path d="M352.6 753.9h-15.8v-7.5h40.4v7.5h-15.8V794h-8.8z"/>
				<path d="M391.5 766.8h31.3v6.8h-31.3z"/>
				<path d="M468.2 794.7q-7.3 0-13.1-3.1-5.9-3.2-9.2-8.8-3.3-5.7-3.3-12.6 0-7 3.3-12.5 3.3-5.7 9.2-8.8 5.8-3.2 13.1-3.2t13.1 3.2q5.9 3.1 9.2 8.7 3.3 5.6 3.3 12.6t-3.3 12.6q-3.3 5.6-9.2 8.8-5.8 3-13.1 3zm0-7.8q4.8 0 8.6-2 3.8-2.3 6-6 2.1-4 2.1-8.7 0-4.8-2.1-8.6-2.2-3.8-6-6-3.8-2.1-8.6-2.1t-8.6 2.1q-3.8 2.2-6 6-2.1 3.8-2.1 8.6t2.1 8.6q2.2 3.8 6 6 3.8 2.1 8.6 2.1z"/>
				<path d="M537.2 794.7q-7.2 0-13-3.1-5.8-3.2-9.1-8.8-3.3-5.6-3.3-12.6t3.3-12.6q3.4-5.6 9.1-8.7 5.9-3.2 13.1-3.2 5.9 0 10.7 2 4.8 2.1 8.1 6l-5.7 5.3q-5.1-5.5-12.7-5.5-4.9 0-8.8 2.1-3.8 2.2-6 6t-2.2 8.6q0 4.8 2.2 8.6t6 6q4 2.1 8.8 2.1 7.6 0 12.7-5.6l5.7 5.4q-3.3 3.9-8.2 6-4.8 2-10.7 2z"/>
				<path d="M585.7 753.9H570v-7.5h40.4v7.5h-15.8V794h-8.9z"/>
				<path d="M690.8 786.5v7.5h-35.1v-6l18.9-17.9q3.2-3 4.3-5.3 1.1-2.3 1.1-4.5 0-3.4-2.2-5.1-2.2-1.8-6.6-1.8-7.3 0-11.1 5l-6.2-4.8q2.8-3.7 7.4-5.8 4.8-2 10.7-2 7.7 0 12.3 3.6 4.7 3.7 4.7 10 0 3.9-1.7 7.3-1.6 3.4-6.2 7.7l-12.8 12.1z"/>
				<path d="M727.5 794.7q-5.7 0-10.2-2.9-4.5-2.9-7-8.4-2.7-5.6-2.7-13.2t2.6-13.1q2.6-5.6 7-8.5 4.6-2.9 10.3-2.9 5.7 0 10.2 3 4.5 2.8 7.1 8.4 2.6 5.5 2.6 13.1t-2.6 13.2q-2.6 5.5-7.1 8.4-4.5 2.9-10.2 2.9zm0-7.7q5 0 8-4.2t3-12.6q0-8.4-3-12.6-3-4.2-8-4.2t-8 4.2q-3 4.2-3 12.6 0 8.4 3 12.6 3 4.2 8 4.2z"/>
				<path d="M799.5 786.5v7.5h-35v-6l18.8-17.9q3.2-3 4.3-5.3 1.2-2.3 1.2-4.5 0-3.4-2.3-5.1-2.2-1.8-6.6-1.8-7.2 0-11.1 5l-6.2-4.8q2.8-3.7 7.5-5.8 4.7-2 10.6-2 7.7 0 12.4 3.6 4.6 3.7 4.6 10 0 3.9-1.6 7.3-1.7 3.4-6.3 7.7l-12.7 12.1z"/>
				<path d="M836.2 794.7q-5.7 0-10.2-2.9-4.5-2.9-7-8.4-2.6-5.6-2.6-13.2t2.5-13.1q2.6-5.6 7.1-8.5 4.5-2.9 10.2-2.9 5.7 0 10.2 3 4.6 2.8 7.2 8.4 2.5 5.5 2.5 13.1t-2.5 13.2q-2.6 5.5-7.2 8.4-4.5 2.9-10.2 2.9zm0-7.7q5.1 0 8-4.2 3-4.2 3-12.6 0-8.4-3-12.6-2.9-4.2-8-4.2-5 0-8 4.2t-3 12.6q0 8.4 3 12.6 3 4.2 8 4.2z"/>
			</g>
			<g class="wordmark-location" id="text867" aria-label="#Maps4HTML">
				<path d="M233.2 882.3h9.2v6.1h-10l-1.3 11.6h-6.2l1.4-11.6h-11.5l-1.4 11.6h-6.2l1.4-11.6h-9.2v-6.1h10l1.5-12.2h-9.1V864h9.9l1.4-11.6h6.2l-1.4 11.6h11.4l1.4-11.6h6.2l-1.4 11.6h9.1v6.1h-9.9zm-6.1 0l1.5-12.2H217l-1.5 12.2z"/>
				<path d="M312.3 900v-31.6l-15.7 26.2h-4l-15.5-25.7V900h-8.5v-47.6h7.3l18.9 31.6 18.6-31.6h7.2l.1 47.6z"/>
				<path d="M362.6 863.3q8 0 12.3 3.9 4.2 3.8 4.2 11.5V900h-8v-4.4q-1.5 2.4-4.5 3.7-2.8 1.2-6.9 1.2-4 0-7.1-1.4-3.1-1.4-4.8-3.9-1.6-2.5-1.6-5.6 0-4.9 3.6-7.8 3.6-3 11.5-3h9.3v-.6q0-3.8-2.3-5.8-2.2-2-6.7-2-3 0-6 .9-3 1-5 2.7l-3.3-6.2q2.8-2.2 6.8-3.4 4-1.1 8.5-1.1zm-1.1 31q3.2 0 5.6-1.4 2.5-1.5 3.5-4.3v-4.2H362q-7.4 0-7.4 4.9 0 2.3 1.9 3.6 1.8 1.4 5 1.4z"/>
				<path d="M426.2 863.3q5.3 0 9.4 2.3 4.2 2.3 6.6 6.5 2.4 4.2 2.4 9.7 0 5.6-2.4 9.8-2.4 4.3-6.6 6.6-4.1 2.3-9.4 2.3-7.4 0-11.6-5v17.7H406v-49.5h8v4.7q2.2-2.5 5.2-3.8 3.1-1.3 6.9-1.3zm-1 29.9q4.7 0 7.7-3.1 3-3.2 3-8.3 0-5-3-8.2-3-3.1-7.7-3.1-3 0-5.5 1.4-2.4 1.4-3.9 4-1.4 2.5-1.4 6 0 3.3 1.4 6 1.5 2.5 4 4 2.4 1.3 5.4 1.3z"/>
				<path d="M479.9 900.5q-4.4 0-8.6-1.2-4.3-1.1-6.8-2.9l3.3-6.5q2.4 1.7 5.8 2.7 3.5 1 6.8 1 7.6 0 7.6-4 0-2-2-2.7-1.8-.8-6.1-1.5-4.5-.6-7.4-1.5-2.7-.9-4.9-3-2-2.3-2-6.3 0-5.1 4.3-8.2 4.3-3.1 11.7-3.1 3.7 0 7.5.9 3.7.8 6 2.2L492 873q-4.6-2.8-10.4-2.8-3.7 0-5.7 1.2-1.9 1-1.9 3t2 2.9q2.2.8 6.5 1.5 4.4.7 7.1 1.6 2.8.9 4.8 3 2 2 2 6 0 5-4.4 8.1-4.4 3-12 3z"/>
				<path d="M559.6 889.2H551V900h-8.5v-10.8h-26.1V883l23.4-30.7h9.5l-22.1 29.3h15.6v-9.6h8.2v9.6h8.5z"/>
				<path d="M625 852.4V900h-8.8v-20.4h-24.6V900h-8.8v-47.6h8.8v19.7h24.6v-19.7z"/>
				<path d="M663.5 859.9h-15.7v-7.5h40.4v7.5h-15.8V900h-8.9z"/>
				<path d="M754.5 900v-31.6l-15.7 26.2h-4l-15.6-25.7V900h-8.4v-47.6h7.3L737 884l18.5-31.6h7.3V900z"/>
				<path d="M791.7 852.4h8.9v40.1h24.9v7.5h-33.8z"/>
			</g>
		</g>
	</g>
</svg>