<svg class="logo" xmlns="http://www.w3.org/2000/svg" width="26em" height="13em" viewBox="0 0 2000 1000">
	<style>
		.svg-background { fill: #005a9c; }
		.icon, .wordmark { fill: #fff; }
		.wordmark-maps { font: 800 240px/1 "Montserrat", sans-serif; }
		.wordmark-for-the { font: italic 700 150px/1 "PT Serif", serif; }
		.wordmark-web { font: 800 287px/1 "Montserrat", sans-serif; }
		.wordmark-date, .wordmark-location {
			font: 600 68px/1 "Montserrat", sans-serif;
			letter-spacing: 16px;
		}
	</style>
	<polygon class="svg-background" points="0 0, 2000 0, 2000 850, 1850 1000, 150 1000, 0 850" />
	<g transform="scale(.9) translate(100,50)">
		<g class="icon">
			<g class="arrow">
				<path class="arrow-n" d="M318.8 74.5c-.2 22-.4 98.6-.6 170.2L318 375l16.7-12.3c51.6-37.9 65.6-47.8 66.4-47 .4.4 13.5 33.4 28.9 73.3 15.5 39.9 28.3 72.6 28.5 72.8.1.2 10.5-3.7 23.1-8.7 15.6-6 22.8-9.3 22.6-10.2-.2-.8-12.9-33.9-28.4-73.7-15.4-39.7-27.9-72.5-27.7-72.7.3-.2 20.5-2.7 44.9-5.5 24.5-2.7 47.3-5.3 50.8-5.8l6.2-.7-40.2-43.5c-22.1-23.9-72.4-78.4-111.7-121-39.4-42.6-73.2-79.3-75.3-81.5l-3.7-4-.3 40z"/>
				<path class="arrow-e" d="M625.7 317.6c-.3.3 2.7 4.9 6.7 10.2 25.6 34.3 52.7 72.5 52 73.2-.5.4-33.5 13.5-73.4 29-39.9 15.5-72.6 28.3-72.8 28.4-.3.4 16.9 44.9 17.7 45.7.3.4 4.4-.8 9.1-2.6 112.2-43.9 138-53.9 138.5-53.3.4.4 6.8 54.5 10.6 90.3.6 5.5 1.3 10.2 1.5 10.4.3.3 2.3-1.3 4.7-3.5 2.3-2.3 15.9-14.8 30.2-28C784 486.6 905 374.9 920 361c6.3-5.9 18.9-17.5 28-25.9 9.1-8.4 16.6-15.6 16.8-16.1.2-.4-73.2-.9-163-1-89.8-.1-166.1-.3-169.4-.5-3.4-.2-6.4-.1-6.7.1z"/>
				<path class="arrow-s" d="M518 546.9c-14.7 5.8-22.4 9.3-22.2 10.2.4 1.7 10.9 28.8 35.6 92.3 11.3 29 20.6 53.2 20.6 53.6 0 .4-4.4 1.3-9.7 1.9-30.4 3.6-88.3 10.1-89.7 10.1-.9 0-1.6.3-1.6.7 0 .5 4.4 5.5 9.8 11.3 5.3 5.9 55.6 60.3 111.7 121 56.1 60.6 103.4 111.9 105 113.9l3 3.5.6-32.4c.3-17.9.6-93.8.7-168.7.1-74.9.5-136.9.8-137.7.3-.9.4-1.6 0-1.6-.3 0-8.1 5.5-17.3 12.3-51.6 37.8-65.6 47.8-66.3 47-.5-.4-13.6-33.5-29.1-73.6-15.6-40-28.5-72.7-28.8-72.7-.3.1-10.7 4.1-23.1 8.9z"/>
				<path class="arrow-w" d="M260.5 472.3c-12.6 11.7-68.4 63.3-124 114.6-55.6 51.2-101.1 93.5-101.2 93.9-.2.4 8.4.7 19 .8 13.9.1 314.5.5 319.9.4.4 0-7.9-11.8-18.5-26.3-34.5-46.9-40.9-55.9-40-56.7.4-.5 33.4-13.5 73.3-29s72.6-28.3 72.8-28.5c.4-.3-16.8-44.8-17.7-45.6-.3-.4-7.8 2.1-16.6 5.5-8.8 3.5-33.5 13.1-55 21.5-63.5 24.8-75.5 29.4-76 29-.3-.4-2-14.3-10.1-86.2-1-8.1-2-14.7-2.3-14.7-.3 0-10.9 9.6-23.6 21.3z"/>
			</g>
			<g class="arc">
				<path class="arc-ne" d="M483 98.6c-.8.2-9.1 1-18.5 1.9-19.9 1.8-43.5 5.5-43.5 6.8 0 .5 3.7 4.8 8.3 9.6 4.5 4.8 18.2 19.5 30.5 32.8l22.4 24 24.6.6c24.9.6 38.8 2 57.7 5.8 62.9 12.9 119.9 43.3 164.6 87.9 6.9 6.9 14.8 15.2 17.6 18.4l5.1 6 46.2.4 46.1.4-5.3-8.3c-14.9-23.4-34.1-47.3-55.3-68.4-59-59.1-134.1-98.1-215.5-111.9-26.8-4.6-76.2-8.1-85-6z"/>
				<path class="arc-se" d="M884.5 427.8c-12.9 12.4-53.8 50-56.1 51.6-2 1.5-2.1 2.5-2.7 27.8-.8 36.8-4.9 61.4-15.5 94.3C793 654.4 760 705 718.5 742.3l-11.2 10-.2 45.9-.2 45.8 8.3-5.2c41.5-26.4 80.1-62.9 110.5-104.6 23.6-32.4 45.4-75.9 57.2-114.1 15.9-51.6 21.9-107.3 16.8-156.1-1.8-17.7-5.6-42.1-6.6-43.2-.3-.4-4.2 2.8-8.6 7z"/>
				<path class="arc-sw" d="M161.2 715.1c26.4 41.6 62.9 80.2 104.6 110.6 22.6 16.5 56.6 35.4 82.5 45.9 59.4 24 128.3 34.3 187.7 28.1 20.7-2.2 43-5.8 43-7 0-.4-5.1-6.3-11.2-12.9-6.2-6.7-18.3-19.6-26.8-28.7-8.5-9.2-17.1-18.5-19.1-20.7l-3.7-4.1-24.8-.6c-25.1-.6-38.9-2-57.9-5.8-62.8-12.9-120-43.4-164.6-87.9-6.9-6.9-14.9-15.2-17.7-18.5l-5.2-5.9-46.1-.4-46-.4 5.3 8.3z"/>
				<path class="arc-nw" d="M277.9 165.9C193.4 222.5 134.1 307.1 110 405.4c-7.3 30-12.6 76.3-11.7 101.6.9 22.2 5.7 64.3 8.2 71.8.3.8 5.1-2.9 12.7-10 6.6-6.2 19.4-18.1 28.2-26.3 8.9-8.3 18.4-17 21.2-19.5l5.2-4.5.5-26c.7-31.8 3.1-49.3 10.6-77.5 15.9-59.5 51.1-116.8 97.1-157.7l11-9.8v-45.3c0-26-.4-45.2-.9-45.2s-6.9 4-14.2 8.9z"/>
			</g>
		</g>
		<g class="wordmark" transform="translate(1000,0)">
			<text class="wordmark-maps" x="125" y="272">MAPS</text>
			<text class="wordmark-for-the" x="287" y="422">for the</text>
			<text class="wordmark-web" x="132" y="675">WEB</text>
			<text class="wordmark-date" x="110" y="794">15–17 JUNE 2020</text>
			<text class="wordmark-location" x="245" y="900">MONTREAL</text>
		</g>
	</g>
</svg>