<svg class="logo" xmlns="http://www.w3.org/2000/svg" width="26em" height="13em" viewBox="0 0 2000 1000">
	<style>
		.svg-background { fill: #005a9c; }
		.icon, .wordmark { fill: #fff; }
	</style>
	<polygon class="svg-background" points="0 0, 2000 0, 2000 850, 1850 1000, 150 1000, 0 850" />
	<g transform="scale(.9) translate(100,50)">
		<g class="icon">
			<g class="arrow">
				<path class="arrow-n" d="M318.8 74.5c-.2 22-.4 98.6-.6 170.2L318 375l16.7-12.3c51.6-37.9 65.6-47.8 66.4-47 .4.4 13.5 33.4 28.9 73.3 15.5 39.9 28.3 72.6 28.5 72.8.1.2 10.5-3.7 23.1-8.7 15.6-6 22.8-9.3 22.6-10.2-.2-.8-12.9-33.9-28.4-73.7-15.4-39.7-27.9-72.5-27.7-72.7.3-.2 20.5-2.7 44.9-5.5 24.5-2.7 47.3-5.3 50.8-5.8l6.2-.7-40.2-43.5c-22.1-23.9-72.4-78.4-111.7-121-39.4-42.6-73.2-79.3-75.3-81.5l-3.7-4-.3 40z"/>
				<path class="arrow-e" d="M625.7 317.6c-.3.3 2.7 4.9 6.7 10.2 25.6 34.3 52.7 72.5 52 73.2-.5.4-33.5 13.5-73.4 29-39.9 15.5-72.6 28.3-72.8 28.4-.3.4 16.9 44.9 17.7 45.7.3.4 4.4-.8 9.1-2.6 112.2-43.9 138-53.9 138.5-53.3.4.4 6.8 54.5 10.6 90.3.6 5.5 1.3 10.2 1.5 10.4.3.3 2.3-1.3 4.7-3.5 2.3-2.3 15.9-14.8 30.2-28C784 486.6 905 374.9 920 361c6.3-5.9 18.9-17.5 28-25.9 9.1-8.4 16.6-15.6 16.8-16.1.2-.4-73.2-.9-163-1-89.8-.1-166.1-.3-169.4-.5-3.4-.2-6.4-.1-6.7.1z"/>
				<path class="arrow-s" d="M518 546.9c-14.7 5.8-22.4 9.3-22.2 10.2.4 1.7 10.9 28.8 35.6 92.3 11.3 29 20.6 53.2 20.6 53.6 0 .4-4.4 1.3-9.7 1.9-30.4 3.6-88.3 10.1-89.7 10.1-.9 0-1.6.3-1.6.7 0 .5 4.4 5.5 9.8 11.3 5.3 5.9 55.6 60.3 111.7 121 56.1 60.6 103.4 111.9 105 113.9l3 3.5.6-32.4c.3-17.9.6-93.8.7-168.7.1-74.9.5-136.9.8-137.7.3-.9.4-1.6 0-1.6-.3 0-8.1 5.5-17.3 12.3-51.6 37.8-65.6 47.8-66.3 47-.5-.4-13.6-33.5-29.1-73.6-15.6-40-28.5-72.7-28.8-72.7-.3.1-10.7 4.1-23.1 8.9z"/>
				<path class="arrow-w" d="M260.5 472.3c-12.6 11.7-68.4 63.3-124 114.6-55.6 51.2-101.1 93.5-101.2 93.9-.2.4 8.4.7 19 .8 13.9.1 314.5.5 319.9.4.4 0-7.9-11.8-18.5-26.3-34.5-46.9-40.9-55.9-40-56.7.4-.5 33.4-13.5 73.3-29s72.6-28.3 72.8-28.5c.4-.3-16.8-44.8-17.7-45.6-.3-.4-7.8 2.1-16.6 5.5-8.8 3.5-33.5 13.1-55 21.5-63.5 24.8-75.5 29.4-76 29-.3-.4-2-14.3-10.1-86.2-1-8.1-2-14.7-2.3-14.7-.3 0-10.9 9.6-23.6 21.3z"/>
			</g>
			<g class="arc">
				<path class="arc-ne" d="M483 98.6c-.8.2-9.1 1-18.5 1.9-19.9 1.8-43.5 5.5-43.5 6.8 0 .5 3.7 4.8 8.3 9.6 4.5 4.8 18.2 19.5 30.5 32.8l22.4 24 24.6.6c24.9.6 38.8 2 57.7 5.8 62.9 12.9 119.9 43.3 164.6 87.9 6.9 6.9 14.8 15.2 17.6 18.4l5.1 6 46.2.4 46.1.4-5.3-8.3c-14.9-23.4-34.1-47.3-55.3-68.4-59-59.1-134.1-98.1-215.5-111.9-26.8-4.6-76.2-8.1-85-6z"/>
				<path class="arc-se" d="M884.5 427.8c-12.9 12.4-53.8 50-56.1 51.6-2 1.5-2.1 2.5-2.7 27.8-.8 36.8-4.9 61.4-15.5 94.3C793 654.4 760 705 718.5 742.3l-11.2 10-.2 45.9-.2 45.8 8.3-5.2c41.5-26.4 80.1-62.9 110.5-104.6 23.6-32.4 45.4-75.9 57.2-114.1 15.9-51.6 21.9-107.3 16.8-156.1-1.8-17.7-5.6-42.1-6.6-43.2-.3-.4-4.2 2.8-8.6 7z"/>
				<path class="arc-sw" d="M161.2 715.1c26.4 41.6 62.9 80.2 104.6 110.6 22.6 16.5 56.6 35.4 82.5 45.9 59.4 24 128.3 34.3 187.7 28.1 20.7-2.2 43-5.8 43-7 0-.4-5.1-6.3-11.2-12.9-6.2-6.7-18.3-19.6-26.8-28.7-8.5-9.2-17.1-18.5-19.1-20.7l-3.7-4.1-24.8-.6c-25.1-.6-38.9-2-57.9-5.8-62.8-12.9-120-43.4-164.6-87.9-6.9-6.9-14.9-15.2-17.7-18.5l-5.2-5.9-46.1-.4-46-.4 5.3 8.3z"/>
				<path class="arc-nw" d="M277.9 165.9C193.4 222.5 134.1 307.1 110 405.4c-7.3 30-12.6 76.3-11.7 101.6.9 22.2 5.7 64.3 8.2 71.8.3.8 5.1-2.9 12.7-10 6.6-6.2 19.4-18.1 28.2-26.3 8.9-8.3 18.4-17 21.2-19.5l5.2-4.5.5-26c.7-31.8 3.1-49.3 10.6-77.5 15.9-59.5 51.1-116.8 97.1-157.7l11-9.8v-45.3c0-26-.4-45.2-.9-45.2s-6.9 4-14.2 8.9z"/>
			</g>
		</g>
		<g class="wordmark" transform="translate(1000,0)">
			<g class="wordmark-maps">
				<path d="M788 101.6c-12.1 1.6-20.2 3.9-29.5 8.4-14.5 7.1-23.5 16.7-28 29.5-2.6 7.5-3.1 20.6-1 28.5 2.1 8 3.3 10.4 8.3 16.1 8.8 9.9 20.5 15.3 47.9 21.9 31 7.4 37.3 10.6 37.3 18.8 0 8.1-7.1 12.8-20.9 13.9-15.2 1.1-35.6-3.3-51.9-11.3-5.2-2.5-9.6-4.4-9.8-4.1-.2.2-3.8 7.8-7.8 16.8-5.5 12.2-7.1 16.7-6.3 17.7 2.9 3.6 20.3 10.6 35.2 14.1 25.7 6.1 55.5 4.5 76-4.1 21.4-9.1 33.4-27.4 32.3-49.3-.8-14.2-5.7-23.5-16.9-31.9-7.8-5.9-17.5-9.5-40.4-15.1-32.8-7.9-36.3-9.6-37.2-17.8-.5-4.4-.3-4.9 3.4-8.6 5.1-5.1 10.2-6.5 23.8-6.4 13.5.1 25.3 2.7 37.1 8.2 6 2.9 8.5 3.6 9.2 2.8.5-.7 3.4-7.3 6.5-14.7 8.6-20.9 8.2-18.7 4.4-21-5.6-3.5-18.4-7.9-29-10-9.9-2.1-34.6-3.4-42.7-2.4z"/>
				<path d="M142 188.5V272h44v-42c0-23.1.3-42 .8-42 .4 0 10.1 15.3 21.6 34l20.8 34.1 10.6-.3 10.6-.3 21.1-35.3 21-35.3.6 14.3c.4 7.9.7 27.5.8 43.5l.1 29.3h44.3l-.6-29.3c-.4-16-.7-53.6-.7-83.5V105h-39.5l-19 32.1c-31.7 53.6-37 62.2-38 62.6-.6.1-14-21.1-29.9-47.2L181.7 105H142v83.5z"/>
				<path d="M423.1 109.2c-1 2.4-8.8 20-17.3 39.3-8.6 19.2-24 54.1-34.3 77.5-10.3 23.4-19.1 43.3-19.6 44.2-.9 1.7.5 1.8 23.4 1.8h24.4l6.4-15.8 6.4-15.7 35.6-.3 35.6-.2 6.5 15.7 6.4 15.8 24.8.3c19.8.2 24.7 0 24.3-1-.3-.7-8.4-19.1-18.1-40.8-9.6-21.7-26-58.6-36.3-82l-18.8-42.5-23.8-.3-23.8-.2-1.8 4.2zm36 68.8c5.4 13.5 9.8 25.1 9.9 25.7 0 1-4.9 1.3-21.1 1.3-19.7 0-21.1-.1-20.5-1.8 5.6-15.3 20.2-50.2 20.9-49.9.5.1 5.4 11.3 10.8 24.7z"/>
				<path d="M560 188.4V272h47v-43h13.8c17.6 0 33.7-1.5 43.2-4.1 19.5-5.2 33.6-15.9 40.8-31.1 4.8-10 6.2-16.1 6.2-27.3 0-10.3-1.4-17-5.1-25.3-7.3-16.3-18.8-25.8-39.9-32.8l-8.5-2.8-48.7-.4-48.8-.3v83.5zm85-45.3c10.4 2.2 17.1 10.3 17.8 21.5.7 11.3-3.4 18.9-12.7 23.3-5.4 2.5-6.2 2.6-24.1 2.6h-18.5l-.3-24.3-.2-24.2h16.4c9.1 0 18.8.5 21.6 1.1z"/>
			</g>
			<g class="wordmark-for-the">
				<path d="M607 310.5c-4.1.8-9.3 2-11.5 2.8-3.4 1.2-4 1.8-4 4.2 0 2.5.5 2.9 4.5 3.9 3 .8 4.4 1.6 4.3 2.6-.1.8-4.5 22.9-9.8 49-5.2 26.1-9.5 48.1-9.5 48.8 0 1 2.5 1.2 10.7 1l10.6-.3 4.3-21c2.4-11.6 5.1-22.6 6-24.5 4.2-9.1 14.7-19 20.1-19 3 0 4.7 4.1 3.8 9-.3 1.9-2.8 13.8-5.6 26.4-5.5 25.3-5.5 27.3.2 29.6 4.7 2 15 .7 21.7-2.6 5-2.6 5.7-3.2 5.7-5.9 0-2.9-.1-3-5.3-3.3-4.8-.3-5.2-.5-4.7-2.5.3-1.2 2.3-9.4 4.4-18.2 7.9-32.5 7.6-39.2-2.6-44.4-8.7-4.4-23.4 3-34.1 17.3-1.2 1.6-2.2 2.3-2.2 1.5 0-.7 2.5-13.2 5.6-27.7 4.7-22 5.5-26.5 4.3-27.3-1.9-1.2-8-1-16.9.6z"/>
				<path d="M331.7 311.1c-8.4 2-15.2 7.3-19.4 15.2-.9 1.7-2.7 6.8-3.8 11.1-1.2 4.4-2.8 8.3-3.6 8.7-.8.5-3.5 1.7-6.1 2.8-4.2 1.8-4.8 2.3-4.8 5 0 3 .1 3.1 5 3.1 3.3 0 5 .4 5 1.2 0 .7-2.3 16.1-5 34.3-4.6 29.8-5.4 33.7-8.5 40.3-2.2 4.7-5.2 9-8.5 12.2-4 3.9-5 5.5-4.5 7.1.9 2.6 3.3 2.1 13-2.6 11.6-5.6 20.1-15.4 23.1-26.7.7-2.9 3.4-18.6 6-34.8 2.5-16.2 4.8-29.8 5-30.2.3-.5 4.1-.8 8.4-.8 8.8 0 10.5-1.2 9.8-6.8-.3-2.6-.5-2.7-8-3-9.1-.3-8.8.2-5.8-11.8 2.4-9.3 5.6-14.6 10-16.4 3.1-1.3 3.2-1.2 8.9 4.4l5.8 5.7 2.6-3.1c2.9-3.4 5.3-10 4.4-12.3-1.2-3.2-19.5-4.9-29-2.6z"/>
				<path d="M553 330.7c-7.1 1.9-8.8 3.6-9.6 9.4-.6 4.7-.8 4.9-5.3 6.4-6.9 2.2-9.1 4.1-9.1 7.6 0 2.9.1 2.9 5.5 2.9 5.2 0 5.5.1 5 2.2-.3 1.3-2.6 11.5-5 22.7-7.8 35.5-6 42.1 11.9 42.1 8.4 0 15.2-2.1 22.9-7 4.6-2.9 5.6-5 3.9-7.8-.7-1-1.6-.9-4.6.3-2 .9-5.7 1.6-8.2 1.7-5.4.1-8.4-2.2-8.4-6.5 0-2.5 7.8-39.9 9.6-46 .5-1.4 1.8-1.7 9.4-1.7h8.9l1.1-4c.6-2.2.8-4.5.5-5-.3-.6-4.4-1-9.1-1-7.7 0-8.5-.2-8-1.8 1.4-5 2.7-13.5 2.2-14.8-.7-1.8-6.3-1.7-13.6.3z"/>
				<path d="M372.5 346.4c-16.2 4.2-29.1 18.5-32.5 36.3-3.5 17.6 1.7 32.4 13.5 38.6 5.7 3 21.2 3.6 28.7 1.2 19-6.3 30.8-24.3 30.8-47.1 0-14.5-4.7-23.1-14.9-27.7-5.7-2.5-18.5-3.2-25.6-1.3zm14.4 10.5c6.2 6.2 4.8 31.2-2.5 46.8-8.2 17.3-23.3 13.7-23.4-5.7 0-6.4 1.9-19.3 3.9-25.7 1.7-5.9 6.6-13.6 9.6-15.5 4-2.4 9.9-2.4 12.4.1z"/>
				<path d="M440.4 346.5c-4 .7-8.8 1.8-10.8 2.5-3.3 1.1-3.7 1.5-3.4 4.3.3 2.7.8 3.3 4.1 4 2 .5 3.7 1.2 3.7 1.5 0 .4-2.9 14.6-6.5 31.6-3.5 17-6.2 31.3-5.9 31.7.8 1.3 20.1 1.1 21-.2.3-.6 2.8-11.2 5.5-23.6 5.1-23.7 7-28.7 12.9-33.7l3.1-2.6 6.7 4.6 6.7 4.5 3.1-3.5c3.4-3.9 6.4-12 6.4-17.2 0-4.3-2.6-5.8-9.6-5.2-6.6.6-12.2 4.1-17 10.9-2 2.7-3.8 4.8-4.1 4.6-.2-.3.2-3.5.8-7.2 1.1-5.6 1.1-6.8-.2-7.6-1.9-1.2-7.9-1-16.5.6z"/>
				<path d="M703.6 346.1c-15.7 3.7-30.4 20.4-33.7 38.4-1.5 8.1-.7 21.1 1.5 25.5 4.7 9.1 11.5 13.1 23.3 13.8 13.1.7 24.8-4.3 32.7-14.1l3-3.8-2.1-2.1-2.1-2.1-5.3 3.8c-12.7 9.4-25.4 7-28.9-5.3-1.2-4.3-1.2-6.7-.4-11.1.6-2.7 1-3.1 4.1-3.1 10.2 0 27.1-5.6 32.7-10.8 8.5-8 8.6-20.3.2-26-6.1-4.1-15.5-5.3-25-3.1zm12 11.4c2.1 3.2 1.2 8.4-2.1 12.3-2.6 3.1-9.7 6.5-15.7 7.6-3.3.6-3.8.4-3.8-1.3 0-4 4.6-13.7 8.2-17.3 3.1-3.1 4.5-3.8 7.8-3.8 3.1 0 4.3.5 5.6 2.5z"/>
			</g>
			<g class="wordmark-web">
				<path d="M140 483.7c1.6 4.9 10.9 33.3 20.5 63.3 9.7 30 19.6 60.6 22 68 2.4 7.4 7.7 23.8 11.8 36.5l7.5 23h61.4l2.9-8.8c19-58.4 36.3-110.3 36.8-110.9.3-.4 4.6 12 9.4 27.5 4.9 15.5 13.4 42.7 19 60.4l10.2 32.3h61.1l11.1-34.3c6.1-18.8 20.6-63.4 32.2-99.1 11.6-35.6 21.1-65.2 21.1-65.7s-11.7-.9-26.9-.9h-26.9l-4 12.2c-2.2 6.8-9.7 29.8-16.7 51.3-19.1 59-21.2 65.1-21.8 63.5-.4-.8-8.5-26.9-18.2-58s-18.5-59.3-19.6-62.8l-2.1-6.2h-52.3l-21 63c-11.5 34.6-21.3 63-21.6 63-.3 0-1.5-3-2.6-6.8-2.5-8-33.5-106.4-36-114l-1.7-5.2h-58.5l2.9 8.7z"/>
				<path d="M488 575v100h161l-.2-21.8-.3-21.7-52.3-.3-52.2-.2.2-17.8.3-17.7 44.5-.5 44.5-.5v-42L589 552l-44.5-.5-.3-16.2-.2-16.3 50.2-.2 50.3-.3.5-21.8.5-21.7H488v100z"/>
				<path d="M681 575v100h61.3c35 0 65.1-.5 70.2-1 38.3-4.4 61.1-26.1 59.2-56.5-.6-10.3-3.7-19.4-9.3-27.1-5.1-7.3-9.8-11.2-19.1-16-3.7-2-6.6-3.9-6.3-4.2.2-.4 2.3-2 4.7-3.5 12.3-8.2 20.3-23.6 20.3-39.2 0-23.2-13.5-39.6-39.5-47.9-13.1-4.1-21.3-4.6-83.2-4.6H681v100zm103-58.9c8.9 1.4 14.2 4 17.6 8.4 2.4 3.2 2.9 4.7 2.9 9.9 0 8.4-2.9 12.9-10.4 16.5-5.5 2.6-6 2.6-31.3 2.9l-25.8.3v-18.9c0-10.4.3-19.2.7-19.5 1-1.1 39.2-.8 46.3.4zm19 80.5c13.1 6.1 15.7 22.7 5 31.8-6.3 5.2-11.8 6-42.5 6.1h-28l-.3-20.3-.2-20.3 30.7.3c28.8.3 31.1.4 35.3 2.4z"/>
			</g>
			<g class="wordmark-date">
				<path d="M111 750.5v4.5h10v40h9v-49h-19v4.5z"/>
				<path d="M158.9 746.7c0 .5-.6 6.2-1.3 12.8-.7 6.6-1.1 12.3-.9 12.7.2.5 3.7.8 7.6.8 9.5 0 14.1 1.3 15.5 4.5 3.7 8.1-9.7 12.5-19.6 6.5l-3.2-2-2 3.3c-1.1 1.7-1.9 3.6-1.7 4.2.7 2.4 8.4 5 15.8 5.3 14.2.7 21.4-4.8 20.6-16.1-.6-9.3-6.3-13.7-17.9-13.7-2.6 0-5-.5-5.3-1-.4-.6-.4-2.9 0-5l.7-4H187v-9h-14c-7.7 0-14 .3-14.1.7z"/>
				<path d="M258.4 747.4c-.3.8-.4 2.7-.2 4.3.3 2.6.7 2.8 5 3.1l4.8.3.2 19.7.3 19.7h9v-48l-9.3-.3c-7.3-.2-9.3 0-9.8 1.2z"/>
				<path d="M301.4 747.3c-.3.8-.4 4.5-.2 8.3l.3 6.9 4.3.3 4.2.3V755h17.9l-1.8 4.2c-1.1 2.4-4.9 11-8.5 19.2-3.6 8.2-6.6 15.3-6.6 15.8 0 1.3 8.6.9 9.8-.5.5-.6 4.9-10 9.6-20.7 5.8-13.1 8.6-20.8 8.6-23.3V746h-18.5c-14.7 0-18.7.3-19.1 1.3z"/>
				<path d="M396.2 750.2l.3 4.3 8.3.3 8.4.3-.4 13.8c-.3 12.2-.5 14.2-2.3 16.1-1.6 1.8-2.7 2.1-5.8 1.7-2.2-.3-4.9-1.5-6.1-2.6-1.2-1.2-2.5-2.1-2.7-2.1-.3 0-1.5 1.4-2.8 3.1-2.2 3-2.2 3.1-.4 5.1 4.4 5 16.8 6.5 22.8 2.8 5.8-3.6 6.5-6.5 6.5-27.9V746h-26.1l.3 4.2z"/>
				<path d="M450 763c0 13.1.4 17.9 1.5 20.7 3.3 7.9 9.1 11.3 19.3 11.3 9 0 14.7-2.8 18.2-9.1 2.4-4.2 2.5-5.4 2.8-22.2l.4-17.7H483v13.2c-.1 16-1 21.2-4.2 24.5-5.4 5.4-16.1 3.3-18.5-3.7-.7-2.1-1.2-9.7-1.2-18.8L459 746h-9v17z"/>
				<path d="M520 770.6v24.5l4.3-.3 4.2-.3.5-15.4.5-15.3 12.5 15.3c12.4 15.2 12.6 15.4 16.5 15.4h4v-48l-4.7-.3-4.7-.3-.3 15.6-.3 15.6-9.5-11.8c-14.9-18.5-15.7-19.3-19.6-19.3H520v24.6z"/>
				<path d="M591 770.5V795h36.1l-.3-4.2-.3-4.2-12 .2c-6.6.2-12.6-.1-13.3-.6-.9-.6-1.2-2.7-1-6.3l.3-5.4 11.3-.3 11.2-.3V766h-23v-10.9l12.8-.3 12.7-.3.3-4.3.3-4.2H591v24.5z"/>
				<path d="M689 748.1c-2.4 1.1-5.3 2.7-6.2 3.6-1.7 1.5-1.7 1.7-.1 3.6 3.3 3.5 5.1 3.9 8.1 1.7 5.7-4.3 14.5-3.4 15.8 1.5 1.2 4.8-.6 7.7-12.2 18.8-10.3 9.9-11.5 11.4-11.2 14.1l.3 3.1h35v-8l-10.4-.5-10.5-.5 7.7-6.8c9.1-8.2 12.2-13.7 11.4-20.3-.5-4.8-3.2-8.5-7.9-11-4-2.1-14.4-1.7-19.8.7z"/>
				<path d="M748.9 748.8c-6.9 4.4-9.4 10.2-9.4 21.7 0 10.6 2.3 16.6 8.2 21.1 6.2 4.7 17.6 4.6 23.4-.3 7.9-6.7 10.5-23.1 5.5-33.9-3.5-7.6-8.2-10.8-16.5-11.2-5.9-.3-7.1 0-11.2 2.6zm16.8 8.7c3 3.4 4.6 10 4 15.8-.8 6-2.5 9.5-5.9 12-2.3 1.7-3.4 1.9-6.4 1.1-5.9-1.4-7.8-5-8.2-14.7-.2-6.4.1-9 1.5-11.7 3.3-6.4 10.5-7.6 15-2.5z"/>
				<path d="M807 747.1c-3 1.2-9 5.7-9 6.8 0 .4 1.4 1.7 3 2.9l3 2.3 3-2.2c4-3 11.9-3.2 14.9-.5 4.5 4.1 2.4 8.2-11.3 21.4-9.5 9.1-10.6 10.5-10.6 13.7v3.5h35v-9h-20.4l8.6-8.8c9.1-9.3 11.5-13.8 10.4-19.7-.8-4.3-4.1-8.4-8.2-10.1-3.8-1.6-14.7-1.8-18.4-.3z"/>
				<path d="M867.1 747.7c-1.8.9-4.6 3.4-6.1 5.4-8 11.1-6.1 31.2 3.8 38.7 3.1 2.4 4.4 2.7 11.1 2.7 6.3 0 8.1-.4 10.8-2.3 5.6-4 8.6-10.3 9.1-19.2 1-16.7-6.7-27-20-27-2.9 0-6.8.8-8.7 1.7zm14.6 8.5c4.7 3.9 6.2 18.8 2.6 25.1-4 6.7-11.7 7.2-15.9.9-5.5-8.1-3.1-24.3 3.9-27.2 2.6-1.1 7.4-.5 9.4 1.2z"/>
				<path d="M208 775.5v3.5l17.3-.2 17.2-.3v-6l-17.2-.3-17.3-.2v3.5z"/>
			</g>
			<g class="wordmark-location">
				<path d="M349.8 852.1c-16.6 2.6-25.8 21.6-17.5 36.4 7.7 13.6 28.2 16.8 40.2 6.3 6.6-5.8 7.9-8.8 7.9-18.3.1-9-1.2-12.2-7-17.9-5.7-5.6-14.4-8-23.6-6.5zm14 10.6c10.1 7.4 9.7 21.6-.7 27.7-4.2 2.4-11.4 2.5-15.8.2-11.4-5.8-10.7-23.9 1.2-29.2 4-1.9 11.9-1.2 15.3 1.3z"/>
				<path d="M251.7 852.6c-.4.4-.7 11.2-.7 24.1V900h9.5l-.3-14c-.2-7.7 0-14 .5-14 .4 0 4 5.2 7.8 11.5 9.2 15.3 9.5 15.2 19-.8l7-11.8.3 14.6.3 14.5h8.9v-48H296.3l-8.8 15c-4.8 8.3-9.1 15-9.6 14.8-.5-.2-4.8-6.8-9.6-14.8-8.5-14-8.9-14.5-12.3-14.8-2-.2-3.9 0-4.3.4z"/>
				<path d="M405.8 876l-.3 24h9.4l.3-15.2.3-15.3 12.4 15.3 12.3 15.2h8.8l-.2-23.8-.3-23.7-4.7-.3-4.7-.3-.3 15.5-.3 15.5-12.5-15.4c-12.1-15-12.6-15.5-16.2-15.5h-3.7l-.3 24z"/>
				<path d="M470.9 852.2c-.1.2-.2 2-.3 4l-.3 3.8H486v40h10v-40h16.1l-.3-3.8-.3-3.7-20.2-.3c-11.2-.1-20.3-.1-20.4 0z"/>
				<path d="M534 875.9V900h9v-13h12.5l4.5 6.5 4.5 6.5h5.4c5.1 0 5.3-.1 4-2-.8-1.1-3.1-4.4-5.3-7.4l-3.8-5.6 3.1-2.6c4.3-3.6 6.1-7.4 6.1-13 0-6.6-3.2-11.8-8.9-14.6-3.9-2-6.6-2.3-17.8-2.6l-13.3-.4v24.1zm25-14.1c7 3.5 7.7 10.1 1.7 14.6-2.3 1.7-4.3 2.1-10 2.1h-7.2l-.3-7.9c-.2-4.4-.1-8.5.2-9.3.8-2 11.3-1.7 15.6.5z"/>
				<path d="M599.7 852.7c-.4.3-.7 11.1-.7 24V900h37.1l-.3-3.8-.3-3.7-13.2-.3-13.3-.3V880h23v-8h-23v-12h26v-8h-17.3c-9.6 0-17.7.3-18 .7z"/>
				<path d="M675.6 852.8c-1.1 1.8-20.6 45.7-20.6 46.4 0 .4 2.2.8 4.8.8h4.8l1.9-5 1.9-5h23.8l2.1 5 2.1 5h4.8c2.6 0 4.8-.3 4.8-.8 0-.4-4.7-11.1-10.4-23.7l-10.3-23-4.6-.3c-2.5-.2-4.8.1-5.1.6zm9.3 20.2c1.7 4.1 3.1 7.8 3.1 8.2 0 .5-3.6.8-7.9.8h-8l2.6-6.3c3.7-9 5.4-12 6.3-11.1.4.5 2.2 4.3 3.9 8.4z"/>
				<path d="M728 876v24h34v-7.9l-12.2-.3-12.3-.3-.3-19.8-.2-19.7h-9v24z"/>
			</g>
		</g>
	</g>
</svg>