<svg class="logo"
	xmlns="http://www.w3.org/2000/svg"
	xmlns:xlink="http://www.w3.org/1999/xlink"
	width="13em" height="26em" viewBox="0 0 1000 2000">
	<style>
		@import url("https://fonts.googleapis.com/css?family=Montserrat:600,800|PT+Serif:700i");

		.svg-background { fill: #005a9c; }
		.icon, .wordmark { fill: #fff; }
		
		.wordmark-maps { font: 800 240px/1 "Montserrat", sans-serif; }
		.wordmark-for-the { font: italic 700 150px/1 "PT Serif", serif; }
		.wordmark-web { font: 800 287px/1 "Montserrat", sans-serif; }
		.wordmark-date, .wordmark-location {
			font: 600 68px/1 "Montserrat", sans-serif;
			letter-spacing: 16px;
		}
		.wordmark-date { letter-spacing: 12px; }
	</style>
	<polygon class="svg-background" points="0 0, 1000 0, 1000 1750, 510 2000, 490 2000, 0 1750" />
	<g transform="scale(.9) translate(50,0)">
		<g class="icon" transform="translate(0,60)">
			<g class="arrow">
				<path id="arrow"
					d="M319,34L550,284 448,296 506,444 458,462 401,314 318,375Z"/>
				<use xlink:href="#arrow" transform="rotate(90, 500,500)"/>
				<use xlink:href="#arrow" transform="rotate(180, 500,500)"/>
				<use xlink:href="#arrow" transform="rotate(270, 500,500)"/>
			</g>
			<g class="arc">
				<path id="arc"
					d="M 419,106 A400,400 0 0 1 845,293 L752,293 A335,335 0 0 0 482,174 Z"/>
				<use xlink:href="#arc" transform="rotate(90, 500,500)"/>
				<use xlink:href="#arc" transform="rotate(180, 500,500)"/>
				<use xlink:href="#arc" transform="rotate(270, 500,500)"/>
			</g>
		</g>
		<g class="wordmark" transform="translate(0,1000)" text-anchor="middle">
			<text><tspan class="wordmark-maps" x="500" y="272">MAPS</tspan>
			<tspan class="wordmark-for-the" x="511" y="422">for the</tspan>
			<tspan class="wordmark-web" x="506" y="675">WEB</tspan></text>
			<text class="wordmark-date" x="512" y="794">SEPT−OCT 2020</text>
			<text class="wordmark-location" x="512" y="900">#Maps4HTML</text>
		</g>
	</g>
</svg>