<?xml version="1.0" encoding="UTF-8" standalone="no"?>
<!DOCTYPE svg PUBLIC "-//W3C//DTD SVG 1.1//EN" "http://www.w3.org/Graphics/SVG/1.1/DTD/svg11.dtd">
<svg width="100%" height="100%" viewBox="0 0 4096 4096" version="1.1" xmlns="http://www.w3.org/2000/svg" xmlns:xlink="http://www.w3.org/1999/xlink" xml:space="preserve" xmlns:serif="http://www.serif.com/" style="fill-rule:evenodd;clip-rule:evenodd;stroke-linejoin:round;stroke-miterlimit:2;">
    <g transform="matrix(1,0,0,1,-256,-256)">
        <g id="water">
            <g id="_1-o-0-pmap:ocean-yes" serif:id="1 o/0 pmap:ocean=yes">
                <path d="M834,4317L842,4318L843,4319L834,4317" style="fill:rgb(53,126,221);fill-opacity:0.5;fill-rule:nonzero;"/>
                <path d="M4213,416L4225,422L4226,432L4215,419L4195,426L4188,416L4197,423L4213,416" style="fill:rgb(53,126,221);fill-opacity:0.5;fill-rule:nonzero;"/>
                <path d="M832,4303L836,4306L837,4307L830,4305L832,4303" style="fill:rgb(53,126,221);fill-opacity:0.5;fill-rule:nonzero;"/>
                <path d="M1548,4138L1551,4140L1544,4139L1548,4138" style="fill:rgb(53,126,221);fill-opacity:0.5;fill-rule:nonzero;"/>
                <path d="M814,4301L808,4289L784,4275L792,4262L786,4255L774,4260L774,4273L758,4247L743,4248L745,4256L736,4253L721,4228L715,4239L700,4207L627,4162L633,4150L619,4145L615,4129L598,4113L546,4114L503,4094L492,4099L502,4132L551,4181L574,4190L601,4220L609,4250L617,4248L655,4271L671,4340L697,4352L256,4352L256,3326L264,3335L283,3311L286,3325L295,3304L307,3302L310,3290L321,3285L342,3328L339,3348L362,3386L360,3375L380,3409L378,3392L389,3411L396,3394L392,3415L398,3411L400,3420L426,3425L425,3440L433,3447L421,3444L426,3455L436,3453L432,3461L438,3463L442,3452L439,3477L451,3482L444,3483L466,3539L448,3589L449,3616L457,3610L456,3620L463,3614L470,3621L478,3604L471,3623L484,3624L487,3613L488,3623L498,3628L522,3604L558,3587L569,3553L582,3565L607,3620L625,3729L627,3719L633,3722L646,3744L651,3771L643,3789L654,3806L639,3796L640,3805L653,3807L647,3808L651,3817L656,3810L649,3842L655,3848L640,3862L647,3897L636,3944L631,3940L633,3997L640,3990L634,3977L639,3980L648,3969L670,4001L683,4018L699,4026L697,4039L715,4053L727,4079L727,4120L741,4139L736,4155L743,4174L770,4203L770,4222L863,4281L870,4294L878,4287L876,4292L894,4292L888,4286L893,4281L899,4291L906,4289L904,4276L885,4234L867,4218L869,4191L862,4181L869,4145L854,4108L781,4039L744,4032L720,3966L709,3958L703,3926L675,3928L672,3878L678,3877L690,3833L712,3793L715,3752L708,3740L723,3731L755,3732L749,3771L790,3768L815,3793L828,3799L829,3792L854,3833L853,3854L866,3853L872,3840L880,3855L869,3865L873,3869L904,3868L920,3887L938,3890L943,3897L932,3907L928,3949L934,3949L926,3959L943,3957L963,3935L1008,3913L1019,3877L1030,3870L1033,3879L1074,3862L1078,3852L1121,3831L1121,3821L1131,3814L1126,3806L1133,3807L1127,3781L1136,3783L1129,3771L1141,3759L1130,3736L1134,3714L1118,3650L1082,3610L1084,3604L1018,3550L1003,3513L986,3504L967,3475L982,3426L1010,3411L1010,3395L1021,3389L1023,3374L1045,3374L1046,3361L1050,3360L1064,3355L1064,3348L1073,3352L1094,3342L1100,3329L1101,3339L1106,3334L1104,3340L1114,3343L1113,3335L1127,3345L1127,3354L1145,3350L1147,3337L1151,3349L1163,3350L1154,3357L1150,3377L1166,3402L1159,3403L1162,3411L1179,3410L1189,3401L1187,3389L1179,3390L1183,3383L1173,3378L1184,3367L1183,3353L1191,3369L1199,3353L1241,3348L1244,3336L1285,3336L1303,3328L1304,3318L1314,3331L1314,3320L1316,3325L1319,3317L1329,3318L1328,3288L1336,3288L1343,3303L1349,3299L1344,3306L1361,3312L1366,3303L1358,3305L1363,3300L1357,3298L1365,3294L1371,3303L1371,3291L1383,3283L1381,3295L1388,3298L1403,3284L1419,3293L1423,3282L1430,3288L1462,3278L1465,3266L1476,3264L1472,3259L1481,3245L1496,3245L1502,3236L1504,3247L1509,3239L1502,3229L1511,3232L1511,3240L1516,3224L1536,3212L1524,3202L1550,3191L1560,3198L1565,3187L1559,3183L1577,3178L1570,3164L1577,3162L1578,3171L1592,3162L1580,3154L1591,3155L1592,3147L1605,3158L1596,3143L1608,3125L1600,3121L1614,3108L1602,3087L1608,3090L1614,3082L1615,3092L1624,3085L1615,3099L1627,3093L1624,3081L1650,3056L1648,3044L1659,3025L1667,3028L1662,3024L1674,3003L1673,3021L1687,3006L1695,3008L1690,2987L1697,2978L1690,2974L1699,2971L1686,2963L1694,2964L1691,2957L1700,2964L1702,2953L1702,2963L1710,2960L1712,2941L1689,2951L1690,2946L1718,2924L1697,2919L1680,2898L1660,2908L1651,2900L1657,2904L1668,2889L1711,2872L1671,2824L1680,2819L1677,2828L1704,2843L1712,2838L1694,2827L1710,2827L1699,2809L1683,2802L1689,2801L1685,2791L1664,2780L1659,2746L1634,2688L1586,2661L1585,2647L1593,2644L1605,2616L1617,2614L1634,2595L1626,2583L1635,2579L1634,2591L1653,2586L1652,2571L1658,2567L1660,2573L1665,2563L1657,2558L1696,2552L1710,2538L1720,2546L1735,2543L1732,2530L1744,2514L1719,2512L1717,2504L1692,2512L1686,2502L1675,2504L1672,2495L1654,2489L1631,2497L1635,2501L1614,2515L1609,2530L1584,2529L1584,2522L1573,2521L1571,2507L1577,2495L1587,2499L1588,2487L1581,2490L1568,2471L1554,2477L1528,2468L1523,2463L1531,2456L1519,2460L1510,2444L1515,2427L1523,2429L1517,2423L1525,2424L1518,2416L1536,2410L1553,2426L1555,2413L1576,2410L1588,2398L1591,2377L1601,2368L1642,2350L1658,2322L1668,2320L1667,2311L1697,2312L1705,2304L1705,2313L1725,2333L1702,2366L1688,2374L1692,2386L1677,2389L1685,2392L1678,2399L1699,2397L1700,2403L1693,2405L1696,2416L1671,2425L1672,2437L1698,2429L1696,2420L1708,2423L1741,2390L1771,2376L1809,2377L1813,2367L1813,2375L1817,2368L1832,2387L1838,2374L1853,2391L1859,2383L1869,2403L1854,2428L1860,2436L1832,2472L1860,2474L1849,2484L1868,2487L1864,2498L1876,2493L1882,2478L1900,2494L1912,2485L1920,2492L1910,2491L1911,2502L1918,2495L1924,2517L1918,2525L1935,2543L1917,2533L1909,2537L1911,2546L1908,2538L1899,2550L1913,2571L1914,2554L1916,2586L1924,2593L1918,2597L1928,2605L1915,2614L1925,2617L1908,2635L1910,2640L1901,2644L1911,2646L1914,2661L1906,2669L1918,2688L1930,2669L1934,2681L1937,2670L1951,2662L1945,2674L1955,2680L1963,2672L1956,2661L1963,2656L1969,2671L1972,2650L1987,2645L1987,2653L1999,2651L2012,2659L2011,2666L2019,2661L2018,2648L2007,2655L2005,2643L2036,2644L2051,2622L2057,2592L2047,2591L2047,2523L2001,2439L1974,2414L1956,2409L1965,2374L1985,2359L2015,2351L2014,2343L2034,2334L2041,2320L2063,2312L2065,2256L2094,2221L2108,2224L2116,2209L2107,2200L2127,2200L2131,2207L2143,2187L2139,2183L2157,2169L2157,2157L2166,2164L2170,2159L2162,2176L2182,2160L2181,2190L2185,2183L2193,2190L2202,2185L2214,2200L2254,2188L2310,2148L2343,2091L2356,2086L2385,2040L2426,2001L2498,1868L2539,1824L2549,1788L2540,1785L2556,1747L2549,1724L2562,1710L2554,1704L2551,1665L2561,1648L2562,1621L2570,1618L2564,1611L2601,1560L2582,1541L2590,1522L2586,1496L2597,1484L2591,1479L2596,1474L2573,1464L2521,1398L2500,1406L2470,1398L2475,1421L2462,1456L2452,1456L2467,1435L2466,1421L2438,1452L2409,1456L2404,1451L2417,1446L2434,1423L2408,1415L2428,1395L2412,1396L2400,1407L2408,1418L2403,1432L2385,1439L2380,1427L2387,1370L2338,1376L2311,1354L2355,1319L2368,1296L2412,1266L2443,1225L2450,1227L2445,1214L2460,1193L2494,1156L2522,1138L2531,1119L2553,1108L2567,1068L2608,1035L2626,1004L2675,976L2705,972L2791,969L2795,975L2801,969L2796,986L2804,995L2820,989L2824,966L2874,986L2906,971L2914,985L2937,986L2940,974L2929,975L2928,966L2935,958L2938,967L2951,966L2943,952L2967,939L3021,957L3009,964L3021,969L3029,967L3028,957L3050,953L3065,980L3092,987L3036,998L3047,1021L3080,1017L3093,1002L3118,1015L3123,1001L3138,999L3139,985L3158,985L3154,991L3170,1003L3190,988L3205,996L3206,990L3222,992L3223,976L3212,963L3187,958L3187,970L3186,959L3182,968L3172,962L3180,947L3185,956L3178,929L3190,928L3187,911L3255,852L3265,823L3289,806L3290,775L3307,763L3320,761L3328,750L3354,756L3362,747L3389,747L3395,736L3412,740L3417,752L3422,747L3422,763L3458,736L3454,772L3439,789L3440,800L3431,802L3439,802L3441,815L3432,831L3461,821L3449,841L3448,865L3461,848L3460,853L3472,846L3477,851L3483,834L3523,790L3528,793L3527,784L3533,789L3550,762L3567,769L3560,762L3570,757L3579,776L3593,762L3576,748L3587,724L3582,708L3595,697L3586,688L3589,680L3641,661L3670,680L3673,690L3648,687L3630,703L3626,760L3617,763L3612,781L3624,793L3600,824L3611,837L3573,848L3566,860L3530,879L3529,898L3482,951L3464,958L3400,1057L3360,1092L3336,1093L3321,1114L3298,1111L3294,1118L3305,1136L3293,1173L3284,1170L3260,1202L3243,1264L3239,1315L3266,1508L3281,1563L3284,1623L3294,1639L3289,1654L3346,1599L3376,1549L3368,1523L3377,1522L3372,1514L3380,1508L3368,1496L3376,1492L3382,1505L3404,1484L3433,1476L3430,1481L3443,1489L3434,1438L3447,1402L3474,1379L3490,1374L3500,1383L3518,1381L3539,1361L3521,1317L3537,1254L3561,1243L3580,1261L3594,1246L3589,1201L3575,1204L3568,1197L3568,1148L3592,1118L3564,1098L3554,1114L3538,1107L3532,1093L3553,1034L3581,1008L3574,996L3580,991L3589,1000L3581,987L3593,982L3587,957L3597,952L3597,933L3609,929L3609,915L3638,919L3645,908L3661,937L3679,919L3670,908L3677,904L3679,910L3727,874L3732,881L3726,884L3729,900L3719,935L3727,935L3750,897L3764,888L3762,880L3770,886L3796,869L3831,863L3862,867L3881,879L3894,911L3910,924L3926,880L3960,861L3974,841L3991,840L3997,828L3988,817L4007,824L4003,805L4017,809L4032,798L4021,787L4047,782L4057,756L4071,764L4219,677L4265,678L4313,702L4312,687L4325,681L4334,656L4319,637L4327,619L4301,586L4292,532L4274,488L4267,510L4254,505L4237,486L4238,451L4219,455L4205,473L4195,459L4183,467L4189,457L4180,436L4190,445L4211,441L4218,450L4231,444L4226,432L4239,431L4233,443L4244,456L4298,462L4329,445L4352,419L4352,4352L1980,4352L1984,4330L2026,4342L2016,4327L1994,4316L2017,4303L2018,4280L1993,4289L1994,4299L1984,4302L1980,4314L1969,4312L1969,4313L1963,4326L1973,4337L1971,4352L1960,4352L1959,4345L1959,4352L1625,4352L1635,4332L1645,4328L1760,4328L1786,4338L1823,4331L1854,4286L1860,4287L1862,4281L1848,4272L1841,4285L1827,4290L1829,4298L1801,4313L1755,4308L1750,4315L1662,4290L1648,4317L1634,4307L1623,4319L1610,4342L1616,4352L1507,4352L1509,4332L1519,4317L1531,4316L1529,4306L1566,4315L1575,4305L1519,4260L1534,4245L1512,4224L1518,4224L1513,4212L1499,4207L1508,4198L1512,4193L1500,4188L1522,4183L1504,4163L1513,4162L1511,4151L1530,4159L1563,4149L1551,4140L1556,4141L1551,4137L1548,4138L1535,4129L1545,4123L1560,4127L1587,4114L1586,4106L1572,4105L1546,4086L1527,4093L1535,4085L1530,4075L1512,4082L1518,4058L1498,4050L1491,4032L1474,4052L1473,4030L1432,4098L1420,4095L1410,4106L1421,4114L1410,4128L1402,4125L1395,4133L1396,4122L1367,4139L1346,4142L1345,4156L1299,4210L1240,4222L1229,4238L1225,4225L1229,4244L1220,4245L1218,4274L1211,4280L1216,4288L1190,4280L1181,4269L1179,4275L1162,4274L1150,4257L1136,4263L1113,4314L1116,4336L1128,4352L884,4352L866,4328L852,4331L843,4319L848,4320L837,4307L854,4313L836,4299L832,4303L826,4300L823,4308L824,4295L814,4287L814,4301M590,4281L577,4287L612,4327L617,4308L590,4281M588,4250L579,4251L590,4259L588,4250M857,4320L855,4329L861,4326L857,4320M520,4218L519,4232L551,4244L520,4218M919,4296L903,4305L915,4304L912,4312L921,4313L919,4296M897,4297L889,4299L890,4306L897,4307L897,4297M2119,2707L2123,2701L2134,2709L2155,2700L2173,2714L2182,2685L2191,2685L2189,2693L2184,2690L2192,2700L2191,2694L2216,2682L2229,2684L2243,2675L2255,2680L2266,2663L2290,2661L2304,2669L2319,2664L2324,2669L2307,2688L2312,2696L2306,2711L2338,2735L2364,2694L2379,2685L2390,2689L2391,2679L2373,2671L2388,2644L2387,2662L2411,2664L2395,2673L2421,2667L2450,2672L2456,2654L2472,2641L2481,2646L2475,2651L2478,2671L2492,2655L2492,2636L2510,2632L2516,2641L2514,2624L2530,2611L2537,2618L2521,2632L2520,2650L2528,2654L2546,2642L2554,2616L2570,2609L2556,2577L2567,2543L2576,2537L2575,2469L2589,2455L2600,2464L2598,2449L2605,2421L2615,2420L2625,2389L2611,2340L2599,2329L2598,2276L2589,2281L2573,2269L2566,2293L2585,2285L2587,2304L2582,2310L2571,2304L2564,2313L2559,2289L2547,2286L2542,2294L2542,2315L2525,2325L2532,2349L2525,2363L2517,2362L2533,2376L2532,2397L2502,2473L2479,2489L2465,2516L2414,2541L2410,2550L2399,2550L2397,2531L2388,2531L2405,2520L2410,2507L2383,2516L2381,2550L2347,2593L2352,2612L2350,2607L2336,2622L2324,2616L2318,2624L2311,2617L2315,2607L2231,2624L2217,2615L2196,2625L2140,2681L2120,2680L2117,2707L2100,2710L2094,2726L2085,2723L2077,2735L2069,2729L2067,2736L2057,2741L2066,2752L2059,2760L2070,2773L2064,2782L2080,2770L2084,2781L2092,2776L2091,2767L2082,2765L2087,2748L2104,2770L2097,2779L2106,2779L2102,2789L2084,2807L2091,2834L2081,2844L2103,2858L2100,2839L2104,2829L2113,2830L2103,2835L2112,2848L2106,2867L2127,2851L2126,2841L2137,2847L2151,2787L2171,2763L2158,2752L2161,2745L2145,2744L2155,2734L2152,2723L2126,2725L2122,2706L2119,2707M803,4278L825,4294L823,4282L803,4278M1085,4159L1073,4169L1083,4179L1079,4183L1088,4185L1093,4176L1085,4159M719,4102L719,4111L726,4104L719,4102M698,4066L707,4063L704,4058L694,4058L698,4066M431,4021L422,4026L430,4043L431,4021M2011,4231L1994,4248L1997,4261L2011,4255L2011,4231M1515,4196L1508,4198L1514,4204L1515,4196M1869,4181L1871,4195L1878,4197L1869,4181M1928,4144L1925,4170L1935,4157L1928,4144M1630,4108L1609,4122L1631,4118L1630,4108M1868,3902L1872,3940L1858,3936L1853,3948L1839,3940L1835,3965L1820,3959L1813,3977L1788,3988L1797,3978L1795,3966L1775,3953L1771,3962L1759,3964L1753,3980L1723,3987L1710,4034L1719,4036L1740,3996L1749,3998L1749,4012L1763,3998L1763,4009L1778,4015L1773,4007L1783,3993L1815,4015L1801,4034L1805,4061L1845,4084L1861,4074L1856,4087L1867,4098L1880,4077L1865,4045L1878,4021L1887,4016L1903,4066L1901,4036L1910,4041L1907,4035L1921,4019L1919,3999L1910,3991L1912,3963L1898,3958L1909,3948L1903,3926L1896,3929L1868,3902M1673,4074L1663,4083L1686,4080L1673,4074M1822,3815L1823,3825L1830,3825L1822,3815M1711,4043L1703,4049L1710,4059L1727,4050L1711,4043M3358,4033L3363,4042L3365,4035L3358,4033M2655,1387L2647,1402L2645,1397L2634,1396L2654,1425L2644,1446L2653,1458L2642,1468L2633,1467L2632,1457L2611,1468L2619,1492L2615,1529L2605,1547L2605,1580L2614,1587L2607,1590L2626,1610L2634,1638L2624,1678L2629,1750L2615,1804L2631,1857L2620,1881L2625,1915L2613,1949L2626,1995L2649,1941L2681,1955L2686,1987L2696,1964L2689,1934L2672,1928L2668,1905L2646,1868L2666,1778L2696,1764L2716,1769L2747,1811L2731,1783L2703,1693L2683,1598L2684,1607L2677,1607L2683,1594L2671,1559L2681,1500L2679,1508L2669,1477L2675,1466L2662,1436L2667,1411L2655,1387M1749,4012L1749,4019L1756,4016L1749,4012M2619,2019L2613,2027L2606,2024L2603,2038L2612,2079L2606,2121L2592,2136L2596,2159L2584,2171L2547,2159L2555,2180L2545,2194L2539,2191L2523,2204L2521,2226L2537,2243L2530,2265L2534,2277L2550,2271L2561,2252L2575,2259L2585,2253L2566,2234L2544,2226L2553,2205L2565,2207L2576,2223L2614,2204L2679,2246L2684,2218L2709,2188L2726,2180L2749,2184L2749,2176L2757,2181L2796,2156L2776,2162L2762,2133L2774,2095L2749,2121L2730,2120L2724,2110L2696,2102L2667,2081L2619,2019M1659,3487L1646,3495L1637,3534L1641,3567L1634,3585L1640,3606L1627,3612L1618,3593L1611,3598L1609,3615L1617,3620L1625,3671L1633,3668L1643,3689L1649,3685L1645,3670L1666,3681L1648,3697L1651,3719L1655,3711L1662,3723L1667,3718L1679,3727L1701,3709L1730,3730L1739,3747L1744,3744L1736,3710L1766,3734L1772,3754L1791,3762L1804,3756L1795,3763L1807,3776L1811,3752L1792,3752L1797,3744L1782,3728L1800,3717L1777,3712L1773,3703L1772,3718L1763,3721L1759,3703L1744,3692L1733,3692L1728,3703L1724,3696L1719,3700L1727,3707L1722,3713L1701,3702L1694,3677L1700,3675L1683,3646L1695,3628L1692,3618L1721,3603L1732,3576L1735,3559L1719,3537L1719,3514L1727,3504L1723,3494L1709,3506L1659,3487M670,4001L667,4006L670,4011L670,4001M1487,3983L1481,3989L1486,3995L1487,3983M1691,3161L1668,3174L1629,3235L1622,3272L1660,3330L1661,3309L1685,3269L1706,3202L1704,3184L1712,3176L1691,3161M1597,3828L1594,3846L1587,3849L1596,3861L1586,3851L1587,3872L1575,3875L1567,3893L1513,3938L1493,3971L1552,3927L1564,3897L1584,3892L1607,3871L1597,3853L1604,3846L1597,3828M1197,3414L1195,3426L1182,3418L1153,3422L1142,3431L1132,3427L1127,3432L1133,3435L1105,3454L1106,3494L1146,3511L1190,3481L1197,3452L1213,3439L1197,3414M1766,3848L1755,3853L1748,3870L1751,3890L1729,3902L1758,3938L1771,3929L1763,3901L1783,3857L1766,3848M1786,3926L1778,3931L1784,3936L1786,3926M1802,3844L1774,3894L1771,3921L1786,3890L1804,3876L1802,3844M1816,3886L1793,3900L1797,3911L1815,3913L1830,3905L1828,3892L1816,3886M1897,3891L1892,3900L1899,3906L1897,3891M1878,3872L1870,3889L1875,3903L1878,3872M1848,3771L1850,3777L1816,3774L1821,3792L1850,3813L1840,3825L1847,3828L1830,3834L1817,3822L1820,3851L1834,3851L1837,3887L1850,3894L1847,3877L1854,3887L1861,3880L1849,3859L1847,3835L1859,3844L1878,3841L1867,3813L1872,3792L1848,3771M892,3873L885,3877L895,3894L892,3873M2264,2682L2238,2690L2242,2699L2236,2706L2218,2709L2208,2698L2202,2704L2197,2721L2181,2733L2192,2744L2186,2756L2188,2764L2199,2763L2196,2772L2213,2774L2213,2758L2226,2737L2255,2732L2266,2746L2272,2728L2292,2714L2284,2702L2287,2691L2278,2693L2264,2682M1710,3804L1705,3812L1716,3815L1710,3875L1741,3859L1763,3840L1764,3820L1740,3824L1710,3804M1666,3730L1634,3734L1651,3746L1665,3782L1677,3792L1692,3773L1692,3749L1666,3730M1741,3859L1735,3875L1745,3866L1741,3859M1613,3864L1612,3874L1620,3867L1613,3864M370,3852L364,3870L372,3867L370,3852M3650,986L3620,1005L3604,1044L3597,1046L3600,1055L3617,1034L3655,1015L3650,986M2931,2017L2907,2036L2897,2036L2892,2025L2889,2039L2854,2065L2859,2071L2843,2088L2859,2081L2880,2053L2891,2056L2909,2039L2933,2032L2931,2017M628,3848L623,3854L630,3853L628,3848M1969,4312L1985,4292L1985,4272L1978,4267L1988,4253L1983,4250L1964,4274L1958,4297L1969,4312M393,3728L379,3763L381,3791L370,3808L379,3826L384,3781L391,3778L385,3759L394,3751L393,3728M643,3810L636,3816L643,3824L643,3810M3261,1661L3243,1689L3223,1695L3224,1712L3231,1716L3254,1699L3267,1680L3261,1661M1615,3803L1619,3816L1624,3811L1615,3803M1768,3773L1771,3791L1764,3805L1780,3791L1805,3814L1803,3801L1768,3773M1614,3789L1633,3810L1631,3791L1628,3796L1614,3789M2423,1326L2405,1361L2417,1352L2426,1372L2450,1340L2423,1326M3713,1313L3703,1319L3745,1367L3744,1352L3726,1328L3728,1318L3713,1313M3012,1973L2988,1982L2959,2016L2971,2013L3012,1973M1717,3770L1708,3787L1713,3797L1717,3770M4023,1496L4007,1503L4023,1505L4021,1512L4029,1516L4035,1509L4052,1510L4039,1498L4023,1496M1737,3778L1731,3781L1741,3789L1737,3778M634,3769L636,3786L641,3774L634,3769M1929,2728L1908,2733L1902,2745L1932,2742L1937,2734L1929,2728M2812,2084L2778,2135L2809,2100L2831,2088L2820,2091L2812,2084M1812,3703L1804,3724L1812,3730L1822,3717L1812,3703M1757,3747L1755,3754L1775,3769L1757,3747M1997,3081L1991,3092L1979,3089L1984,3096L1972,3103L1969,3121L1981,3110L1977,3103L1998,3091L1997,3081M2463,2460L2451,2474L2456,2481L2450,2490L2463,2484L2463,2460M1706,3728L1704,3739L1713,3745L1719,3737L1706,3728M2753,3724L2741,3734L2744,3743L2753,3724M4242,1561L4224,1579L4229,1584L4242,1577L4242,1561M423,3456L422,3470L435,3478L436,3465L423,3456M2304,2671L2288,2688L2291,2694L2301,2690L2304,2671M2085,2783L2077,2784L2076,2802L2097,2784L2085,2789L2085,2783M3205,1742L3196,1761L3201,1768L3210,1744L3205,1742M2062,2996L2037,3010L2052,3012L2062,2996M1712,3662L1703,3664L1709,3678L1712,3662M3281,1654L3268,1661L3272,1671L3278,1671L3281,1654M2403,1332L2380,1350L2397,1348L2403,1332M4291,1596L4317,1619L4327,1618L4291,1596M1710,2909L1713,2919L1726,2923L1725,2914L1710,2909M4068,1533L4049,1542L4066,1545L4068,1533M2099,2894L2093,2901L2100,2907L2107,2899L2099,2894M2842,2124L2831,2129L2833,2136L2845,2129L2842,2124M420,3474L414,3477L424,3487L426,3476L420,3474M3087,1911L3065,1936L3084,1922L3087,1911M4334,1569L4328,1576L4335,1581L4341,1574L4334,1569M1690,3452L1682,3453L1690,3459L1690,3452M2022,2770L2015,2771L2020,2782L2026,2778L2022,2770M389,3411L381,3413L387,3417L389,3411M2046,2687L2051,2665L2043,2673L2046,2687M1905,2672L1900,2685L1911,2680L1905,2672M1184,3369L1175,3376L1190,3377L1184,3369M1980,2652L1978,2663L1988,2665L1980,2652M1031,3380L1025,3382L1031,3388L1031,3380M2046,2688L2046,2687L2040,2686L2040,2700L2048,2688L2046,2688M1611,3142L1610,3156L1618,3151L1611,3142M1050,3360L1047,3372L1057,3363L1050,3360M304,3305L303,3321L310,3312L304,3305M3018,994L3008,1007L3022,999L3018,994M1817,3195L1806,3203L1809,3209L1817,3195M1250,3341L1248,3346L1258,3343L1250,3341M1296,3336L1289,3340L1294,3345L1296,3336M1860,3180L1860,3189L1870,3190L1860,3180M1793,3204L1787,3210L1797,3213L1793,3204M2274,2673L2265,2677L2269,2682L2274,2673M2225,2574L2221,2581L2228,2584L2225,2574M2586,2036L2587,2047L2592,2044L2586,2036M3238,1650L3236,1656L3244,1658L3238,1650M1548,3199L1543,3206L1551,3205L1548,3199M2162,2176L2155,2181L2163,2182L2162,2176M1709,2962L1702,2966L1710,2968L1709,2962M1720,2901L1714,2903L1722,2907L1720,2901M1915,2506L1910,2511L1920,2509L1915,2506M2178,2706L2176,2712L2182,2710L2178,2706" style="fill:rgb(53,126,221);fill-opacity:0.5;fill-rule:nonzero;"/>
                <path d="M2067,2754L2076,2768L2066,2766L2067,2754" style="fill:rgb(53,126,221);fill-opacity:0.5;fill-rule:nonzero;"/>
                <path d="M2119,2707L2117,2709L2117,2707L2119,2707" style="fill:rgb(53,126,221);fill-opacity:0.5;fill-rule:nonzero;"/>
                <path d="M2654,1432L2658,1443L2653,1449L2649,1444L2654,1432" style="fill:rgb(53,126,221);fill-opacity:0.5;fill-rule:nonzero;"/>
                <path d="M817,4307L823,4309L821,4314L817,4307" style="fill:rgb(53,126,221);fill-opacity:0.5;fill-rule:nonzero;"/>
                <path d="M814,4301L817,4307L814,4306L814,4301" style="fill:rgb(53,126,221);fill-opacity:0.5;fill-rule:nonzero;"/>
                <path d="M821,4314L834,4317L821,4315L821,4314" style="fill:rgb(53,126,221);fill-opacity:0.5;fill-rule:nonzero;"/>
            </g>
            <g id="_12-w-645586640-natural-water-pmap:area-3965" serif:id="12 w/645586640 natural=water pmap:area=3965">
                <path d="M324,2304L310,2337L312,2344L333,2345L331,2351L296,2371L287,2388L256,2385L256,2345L261,2319L265,2316L283,2328L295,2304L324,2304" style="fill:rgb(53,126,221);fill-opacity:0.5;fill-rule:nonzero;"/>
            </g>
            <g id="_12-r-166275-water-reservoir-natural-water-pmap:area-1947" serif:id="12 r/166275 water=reservoir natural=water pmap:area=1947">
                <path d="M1226,724L1221,735L1219,729L1226,724" style="fill:rgb(53,126,221);fill-opacity:0.5;fill-rule:nonzero;"/>
                <path d="M1224,691L1213,680L1206,683L1196,676L1208,680L1215,674L1211,670L1216,673L1222,664L1217,659L1222,647L1229,647L1230,657L1238,657L1229,660L1237,669L1227,668L1236,671L1228,670L1224,677L1225,691L1233,694L1223,701L1229,708L1221,714L1226,724L1213,710L1218,713L1225,706L1220,701L1224,691" style="fill:rgb(53,126,221);fill-opacity:0.5;fill-rule:nonzero;"/>
                <path d="M1217,600L1223,605L1216,605L1217,617L1223,612L1217,619L1229,618L1234,625L1220,626L1215,635L1223,640L1222,647L1221,641L1212,646L1208,637L1213,637L1212,624L1218,624L1211,615L1217,600" style="fill:rgb(53,126,221);fill-opacity:0.5;fill-rule:nonzero;"/>
                <path d="M1236,642L1240,640L1235,634L1244,637L1239,628L1251,625L1252,608L1257,620L1250,628L1253,645L1251,640L1239,649L1240,642L1235,647L1236,642" style="fill:rgb(53,126,221);fill-opacity:0.5;fill-rule:nonzero;"/>
                <path d="M1270,620L1274,629L1266,629L1274,645L1265,658L1262,647L1255,646L1263,645L1259,639L1266,641L1261,628L1270,620" style="fill:rgb(53,126,221);fill-opacity:0.5;fill-rule:nonzero;"/>
                <path d="M1187,614L1195,611L1199,616L1204,607L1205,620L1197,619L1192,630L1184,632L1188,618L1199,618L1195,613L1187,614" style="fill:rgb(53,126,221);fill-opacity:0.5;fill-rule:nonzero;"/>
                <path d="M1239,612L1241,607L1233,607L1235,602L1241,605L1243,597L1242,607L1248,607L1240,612L1239,618L1232,612L1239,612" style="fill:rgb(53,126,221);fill-opacity:0.5;fill-rule:nonzero;"/>
                <path d="M1183,591L1192,592L1187,599L1193,603L1185,606L1186,598L1183,591" style="fill:rgb(53,126,221);fill-opacity:0.5;fill-rule:nonzero;"/>
                <path d="M1215,587L1221,593L1217,599L1215,587" style="fill:rgb(53,126,221);fill-opacity:0.5;fill-rule:nonzero;"/>
                <path d="M1169,580L1176,584L1166,585L1169,580" style="fill:rgb(53,126,221);fill-opacity:0.5;fill-rule:nonzero;"/>
                <path d="M1198,628L1201,634L1195,633L1198,628" style="fill:rgb(53,126,221);fill-opacity:0.5;fill-rule:nonzero;"/>
                <path d="M1198,628L1192,630L1196,624L1198,628" style="fill:rgb(53,126,221);fill-opacity:0.5;fill-rule:nonzero;"/>
                <path d="M1210,631L1208,635L1203,634L1210,631" style="fill:rgb(53,126,221);fill-opacity:0.5;fill-rule:nonzero;"/>
                <path d="M1183,591L1182,591L1179,582L1183,591" style="fill:rgb(53,126,221);fill-opacity:0.5;fill-rule:nonzero;"/>
                <path d="M1185,607L1185,614L1184,614L1185,607" style="fill:rgb(53,126,221);fill-opacity:0.5;fill-rule:nonzero;"/>
                <path d="M1184,614L1184,615L1179,614L1184,614" style="fill:rgb(53,126,221);fill-opacity:0.5;fill-rule:nonzero;"/>
                <path d="M1201,634L1203,634L1202,635L1201,634" style="fill:rgb(53,126,221);fill-opacity:0.5;fill-rule:nonzero;"/>
            </g>
            <g id="_12-r-166289-natural-water-pmap:area-828" serif:id="12 r/166289 natural=water pmap:area=828">
                <path d="M1792,256L1816,331L1810,334L1792,298L1783,256L1792,256" style="fill:rgb(53,126,221);fill-opacity:0.5;fill-rule:nonzero;"/>
            </g>
            <g id="_12-r-167043-water-reservoir-natural-water-pmap:area-3407" serif:id="12 r/167043 water=reservoir natural=water pmap:area=3407">
                <path d="M878,1457L875,1454L864,1456L868,1470L863,1495L861,1444L835,1439L841,1435L858,1440L853,1423L842,1413L846,1414L842,1405L852,1396L852,1388L855,1391L857,1369L863,1366L858,1377L860,1387L864,1384L862,1397L870,1395L863,1400L865,1405L879,1413L876,1417L864,1410L859,1390L848,1411L862,1426L867,1449L873,1450L873,1445L878,1453L885,1444L878,1457" style="fill:rgb(53,126,221);fill-opacity:0.5;fill-rule:nonzero;"/>
                <path d="M796,1245L796,1255L815,1244L810,1235L817,1243L825,1241L819,1231L826,1236L829,1227L827,1242L836,1244L838,1232L841,1246L842,1232L854,1280L843,1275L840,1251L835,1259L837,1250L831,1253L826,1247L806,1256L811,1262L801,1257L807,1265L800,1266L805,1269L794,1280L812,1285L822,1299L815,1309L818,1303L812,1298L811,1306L797,1306L795,1312L783,1305L795,1304L793,1298L797,1304L807,1301L796,1297L792,1285L793,1280L778,1273L776,1265L770,1271L768,1262L777,1262L784,1270L782,1261L787,1269L791,1265L784,1257L793,1259L791,1255L782,1252L790,1248L790,1238L794,1246L796,1245" style="fill:rgb(53,126,221);fill-opacity:0.5;fill-rule:nonzero;"/>
                <path d="M852,1280L860,1285L860,1303L856,1302L865,1315L861,1345L852,1350L850,1361L857,1369L845,1359L861,1331L861,1316L856,1317L857,1309L851,1303L855,1296L849,1297L855,1295L852,1280" style="fill:rgb(53,126,221);fill-opacity:0.5;fill-rule:nonzero;"/>
                <path d="M753,1308L768,1315L746,1316L746,1321L744,1316L753,1308" style="fill:rgb(53,126,221);fill-opacity:0.5;fill-rule:nonzero;"/>
                <path d="M810,1357L807,1364L804,1357L810,1357" style="fill:rgb(53,126,221);fill-opacity:0.5;fill-rule:nonzero;"/>
                <path d="M804,1343L810,1345L804,1357L804,1343" style="fill:rgb(53,126,221);fill-opacity:0.5;fill-rule:nonzero;"/>
                <path d="M811,1333L804,1342L794,1334L805,1339L811,1333" style="fill:rgb(53,126,221);fill-opacity:0.5;fill-rule:nonzero;"/>
                <path d="M814,1323L818,1327L812,1331L814,1323" style="fill:rgb(53,126,221);fill-opacity:0.5;fill-rule:nonzero;"/>
                <path d="M770,1301L775,1308L783,1305L775,1314L770,1301" style="fill:rgb(53,126,221);fill-opacity:0.5;fill-rule:nonzero;"/>
                <path d="M815,1309L820,1315L811,1316L815,1309" style="fill:rgb(53,126,221);fill-opacity:0.5;fill-rule:nonzero;"/>
                <path d="M796,1245L802,1241L804,1245L796,1245" style="fill:rgb(53,126,221);fill-opacity:0.5;fill-rule:nonzero;"/>
            </g>
            <g id="_12-r-172038-water-reservoir-natural-water-pmap:area-1073" serif:id="12 r/172038 water=reservoir natural=water pmap:area=1073">
                <path d="M781,1178L784,1179L774,1183L772,1193L771,1175L777,1177L773,1181L781,1178" style="fill:rgb(53,126,221);fill-opacity:0.5;fill-rule:nonzero;"/>
                <path d="M788,1180L815,1188L795,1190L788,1180" style="fill:rgb(53,126,221);fill-opacity:0.5;fill-rule:nonzero;"/>
                <path d="M820,1136L821,1143L827,1144L820,1150L825,1150L820,1152L826,1159L817,1157L820,1180L815,1188L816,1156L808,1150L817,1145L820,1136" style="fill:rgb(53,126,221);fill-opacity:0.5;fill-rule:nonzero;"/>
                <path d="M821,1133L824,1124L820,1121L825,1123L829,1113L822,1109L829,1110L832,1100L827,1099L832,1096L839,1107L829,1123L839,1130L842,1146L867,1122L846,1151L858,1149L855,1153L862,1160L872,1154L864,1165L877,1180L866,1177L854,1172L865,1172L851,1155L841,1158L848,1154L837,1148L838,1132L828,1124L821,1133" style="fill:rgb(53,126,221);fill-opacity:0.5;fill-rule:nonzero;"/>
                <path d="M781,1178L777,1177L779,1175L784,1177L781,1178" style="fill:rgb(53,126,221);fill-opacity:0.5;fill-rule:nonzero;"/>
                <path d="M788,1180L784,1179L787,1178L788,1180" style="fill:rgb(53,126,221);fill-opacity:0.5;fill-rule:nonzero;"/>
            </g>
            <g id="_12-r-298766-natural-water-pmap:area-1226" serif:id="12 r/298766 natural=water pmap:area=1226">
                <path d="M1836,409L1851,432L1875,449L1877,471L1863,470L1849,459L1842,440L1837,440L1842,437L1827,421L1824,417L1836,409M1849,444L1849,451L1862,460L1849,444" style="fill:rgb(53,126,221);fill-opacity:0.5;fill-rule:nonzero;"/>
            </g>
            <g id="_12-r-404236-water-lake-natural-water-pmap:area-1100" serif:id="12 r/404236 water=lake natural=water pmap:area=1100">
                <path d="M710,2523L724,2525L734,2539L730,2545L741,2544L743,2562L702,2552L693,2541L706,2538L701,2525L710,2523" style="fill:rgb(53,126,221);fill-opacity:0.5;fill-rule:nonzero;"/>
            </g>
            <g id="_12-r-555716-natural-water-pmap:area-15936" serif:id="12 r/555716 natural=water pmap:area=15936">
                <path d="M1146,1280L1164,1288L1157,1298L1161,1306L1149,1366L1143,1371L1141,1397L1146,1408L1128,1435L1128,1448L1119,1448L1124,1440L1122,1430L1116,1431L1098,1459L1114,1451L1119,1468L1100,1476L1072,1513L1035,1530L1019,1548L1000,1546L992,1576L979,1592L928,1611L902,1608L880,1596L880,1591L948,1578L981,1535L1017,1509L1026,1497L1026,1496L1023,1492L1018,1495L1021,1490L1053,1464L1058,1448L1084,1426L1116,1346L1125,1339L1130,1296L1146,1280M1065,1465L1028,1489L1026,1496L1048,1491L1063,1479L1065,1465" style="fill:rgb(53,126,221);fill-opacity:0.5;fill-rule:nonzero;"/>
            </g>
            <g id="_12-r-1125603-water-lake-natural-water-pmap:area-1311" serif:id="12 r/1125603 water=lake natural=water pmap:area=1311">
                <path d="M2182,2031L2199,2036L2206,2049L2194,2074L2185,2080L2191,2082L2178,2081L2177,2075L2170,2071L2173,2055L2166,2038L2182,2031" style="fill:rgb(53,126,221);fill-opacity:0.5;fill-rule:nonzero;"/>
            </g>
            <g id="_12-r-1520541-water-lake-natural-water-pmap:area-1442" serif:id="12 r/1520541 water=lake natural=water pmap:area=1442">
                <path d="M387,1667L411,1697L372,1717L356,1688L387,1667" style="fill:rgb(53,126,221);fill-opacity:0.5;fill-rule:nonzero;"/>
            </g>
            <g id="_12-r-1667664-water-lake-natural-water-pmap:area-1145" serif:id="12 r/1667664 water=lake natural=water pmap:area=1145">
                <path d="M734,1599L747,1618L744,1641L730,1664L733,1674L720,1677L717,1686L726,1635L723,1620L730,1618L727,1611L734,1599" style="fill:rgb(53,126,221);fill-opacity:0.5;fill-rule:nonzero;"/>
            </g>
            <g id="_12-r-2401142-water-reservoir-natural-water-pmap:area-1148" serif:id="12 r/2401142 water=reservoir natural=water pmap:area=1148">
                <path d="M1963,1421L1958,1432L1964,1435L1950,1436L1954,1435L1947,1430L1955,1434L1963,1421" style="fill:rgb(53,126,221);fill-opacity:0.5;fill-rule:nonzero;"/>
                <path d="M1972,1407L1977,1409L1965,1419L1972,1407" style="fill:rgb(53,126,221);fill-opacity:0.5;fill-rule:nonzero;"/>
                <path d="M2018,1362L2020,1367L2033,1365L2009,1370L2019,1385L2001,1376L2004,1383L1996,1372L2002,1387L1983,1376L1994,1389L1985,1380L1980,1388L1987,1394L1979,1389L1978,1396L1991,1396L1996,1403L1983,1400L1980,1406L1986,1411L1978,1413L1978,1406L1970,1406L1960,1391L1964,1386L1958,1377L1965,1379L1968,1369L1969,1379L1983,1373L1985,1362L1990,1364L1988,1372L1995,1364L1996,1370L2003,1365L2005,1372L2018,1362" style="fill:rgb(53,126,221);fill-opacity:0.5;fill-rule:nonzero;"/>
            </g>
        </g>
    </g>
</svg>
